<mxfile host="65bd71144e">
    <diagram id="kDU4FmTOq4ENQ84ncTY3" name="Page-1">
        <mxGraphModel dx="5028" dy="4504" grid="1" gridSize="10" guides="1" tooltips="1" connect="1" arrows="1" fold="1" page="1" pageScale="1" pageWidth="850" pageHeight="1100" background="none" math="0" shadow="0">
            <root>
                <mxCell id="0"/>
                <mxCell id="1" parent="0"/>
                <UserObject label="" lucidchartObjectId=".hcaeRv_gAng" id="62">
                    <mxCell style="html=1;jettySize=18;whiteSpace=wrap;fontSize=13;strokeColor=#282c33;strokeOpacity=100;dashed=1;fixDash=1;dashPattern=6 5;strokeWidth=0.8;rounded=1;arcSize=12;edgeStyle=orthogonalEdgeStyle;startArrow=none;endArrow=block;endFill=0;" parent="1" source="182" edge="1">
                        <mxGeometry width="100" height="100" relative="1" as="geometry">
                            <Array as="points"/>
                            <mxPoint x="-680" y="-1550" as="sourcePoint"/>
                            <mxPoint x="-1520" y="-1550" as="targetPoint"/>
                        </mxGeometry>
                    </mxCell>
                </UserObject>
                <mxCell id="182" value="" style="rounded=0;whiteSpace=wrap;html=1;fillColor=#f5f5f5;fontColor=#333333;strokeColor=#666666;" parent="1" vertex="1">
                    <mxGeometry x="-1480" y="-2020" width="2010" height="1840" as="geometry"/>
                </mxCell>
                <UserObject label="SD manage appointment" lucidchartObjectId="_LdapFsighU2" id="186">
                    <mxCell style="html=1;blockSpacing=1;whiteSpace=wrap;shape=mxgraph.sysml.package2;xSize=90;overflow=fill;fontSize=13;spacing=0;strokeColor=#5e5e5e;strokeOpacity=100;fillOpacity=100;rounded=1;absoluteArcSize=1;arcSize=9;fillColor=#ffeca9;strokeWidth=1.5;container=1;pointerEvents=0;collapsible=0;recursiveResize=0;" parent="1" vertex="1">
                        <mxGeometry x="-1380" y="-1970" width="1695" height="1800" as="geometry"/>
                    </mxCell>
                </UserObject>
                <UserObject label="GET_ONE" lucidchartObjectId=".hcaj.O0gebB" id="217">
                    <mxCell style="html=1;blockSpacing=1;whiteSpace=wrap;shape=mxgraph.sysml.package2;xSize=90;overflow=fill;fontSize=13;align=left;spacing=0;strokeColor=#282c33;strokeOpacity=100;fillOpacity=100;rounded=1;absoluteArcSize=1;arcSize=9;fillColor=#ffdba9;strokeWidth=1.5;" parent="186" vertex="1">
                        <mxGeometry x="75" y="345" width="1590" height="225" as="geometry"/>
                    </mxCell>
                </UserObject>
                <mxCell id="187" value="" style="group;dropTarget=0;pointerEvents=0;" parent="1" vertex="1">
                    <mxGeometry x="-105" y="-694.9999999887368" width="30" height="479.9999999887368" as="geometry"/>
                </mxCell>
                <UserObject label="" lucidchartObjectId="Oyda29lVpIu8" id="188">
                    <mxCell style="html=1;overflow=block;blockSpacing=1;whiteSpace=wrap;shape=mxgraph.sysml.x;strokeWidth=4;fontSize=13;spacing=0;strokeColor=#282c33;strokeOpacity=100;rounded=1;absoluteArcSize=1;arcSize=9;" parent="187" vertex="1">
                        <mxGeometry y="449.9999999887368" width="30" height="30" as="geometry"/>
                    </mxCell>
                </UserObject>
                <UserObject label="" lucidchartObjectId="Oydaii.uiODa" id="189">
                    <mxCell style="html=1;jettySize=18;whiteSpace=wrap;fontSize=13;strokeColor=#3a414a;strokeOpacity=100;dashed=1;fixDash=1;strokeWidth=0.8;rounded=0;startArrow=none;endArrow=none;entryX=0.5;entryY=0.359;entryPerimeter=0;" parent="187" target="188" edge="1">
                        <mxGeometry width="100" height="100" relative="1" as="geometry">
                            <Array as="points"/>
                            <mxPoint x="15" y="-1.1263182386755943e-8" as="sourcePoint"/>
                        </mxGeometry>
                    </mxCell>
                </UserObject>
                <mxCell id="190" value="" style="group;dropTarget=0;pointerEvents=0;" parent="1" vertex="1">
                    <mxGeometry x="-300" y="-694.9999999887368" width="30" height="479.9999999887368" as="geometry"/>
                </mxCell>
                <UserObject label="" lucidchartObjectId="NydaABcN9dQn" id="191">
                    <mxCell style="html=1;overflow=block;blockSpacing=1;whiteSpace=wrap;shape=mxgraph.sysml.x;strokeWidth=4;fontSize=13;spacing=0;strokeColor=#282c33;strokeOpacity=100;rounded=1;absoluteArcSize=1;arcSize=9;" parent="190" vertex="1">
                        <mxGeometry y="449.9999999887368" width="30" height="30" as="geometry"/>
                    </mxCell>
                </UserObject>
                <UserObject label="" lucidchartObjectId="NydatTKfbCS~" id="192">
                    <mxCell style="html=1;jettySize=18;whiteSpace=wrap;fontSize=13;strokeColor=#3a414a;strokeOpacity=100;dashed=1;fixDash=1;strokeWidth=0.8;rounded=0;startArrow=none;endArrow=none;entryX=0.5;entryY=0.359;entryPerimeter=0;" parent="190" target="191" edge="1">
                        <mxGeometry width="100" height="100" relative="1" as="geometry">
                            <Array as="points"/>
                            <mxPoint x="15" y="-1.1263182386755943e-8" as="sourcePoint"/>
                        </mxGeometry>
                    </mxCell>
                </UserObject>
                <mxCell id="193" value="" style="group;dropTarget=0;pointerEvents=0;" parent="1" vertex="1">
                    <mxGeometry x="-915" y="-694.9999999887787" width="30" height="479.9999999887786" as="geometry"/>
                </mxCell>
                <UserObject label="" lucidchartObjectId="jydaJFResCuY" id="194">
                    <mxCell style="html=1;overflow=block;blockSpacing=1;whiteSpace=wrap;shape=mxgraph.sysml.x;strokeWidth=4;fontSize=13;spacing=0;strokeColor=#282c33;strokeOpacity=100;rounded=1;absoluteArcSize=1;arcSize=9;" parent="193" vertex="1">
                        <mxGeometry y="449.9999999887786" width="30" height="30" as="geometry"/>
                    </mxCell>
                </UserObject>
                <UserObject label="" lucidchartObjectId="jyda_uRXv.FG" id="195">
                    <mxCell style="html=1;jettySize=18;whiteSpace=wrap;fontSize=13;strokeColor=#3a414a;strokeOpacity=100;dashed=1;fixDash=1;strokeWidth=0.8;rounded=0;startArrow=none;endArrow=none;entryX=0.5;entryY=0.359;entryPerimeter=0;" parent="193" target="194" edge="1">
                        <mxGeometry width="100" height="100" relative="1" as="geometry">
                            <Array as="points"/>
                            <mxPoint x="15" y="-1.122140247389325e-8" as="sourcePoint"/>
                        </mxGeometry>
                    </mxCell>
                </UserObject>
                <mxCell id="196" value="" style="group;dropTarget=0;pointerEvents=0;" parent="1" vertex="1">
                    <mxGeometry x="210" y="-1879.6250375" width="30" height="1664.6250375" as="geometry"/>
                </mxCell>
                <UserObject label="" lucidchartObjectId="eydaqDdX9.xk" id="197">
                    <mxCell style="html=1;overflow=block;blockSpacing=1;whiteSpace=wrap;shape=mxgraph.sysml.x;strokeWidth=4;fontSize=13;spacing=0;strokeColor=#282c33;strokeOpacity=100;rounded=1;absoluteArcSize=1;arcSize=9;" parent="196" vertex="1">
                        <mxGeometry y="1634.6250375" width="30" height="30" as="geometry"/>
                    </mxCell>
                </UserObject>
                <mxCell id="199" value="" style="group;dropTarget=0;pointerEvents=0;" parent="1" vertex="1">
                    <mxGeometry x="30" y="-1879.6250375" width="30" height="1664.6250375" as="geometry"/>
                </mxCell>
                <UserObject label="" lucidchartObjectId="cydaaw9GRkjH" id="200">
                    <mxCell style="html=1;overflow=block;blockSpacing=1;whiteSpace=wrap;shape=mxgraph.sysml.x;strokeWidth=4;fontSize=13;spacing=0;strokeColor=#282c33;strokeOpacity=100;rounded=1;absoluteArcSize=1;arcSize=9;" parent="199" vertex="1">
                        <mxGeometry y="1634.6250375" width="30" height="30" as="geometry"/>
                    </mxCell>
                </UserObject>
                <mxCell id="202" value="" style="group;dropTarget=0;pointerEvents=0;" parent="1" vertex="1">
                    <mxGeometry x="-450" y="-1879.625037500045" width="30" height="1664.625037500045" as="geometry"/>
                </mxCell>
                <UserObject label="" lucidchartObjectId="_xda4ihtnnbT" id="203">
                    <mxCell style="html=1;overflow=block;blockSpacing=1;whiteSpace=wrap;shape=mxgraph.sysml.x;strokeWidth=4;fontSize=13;spacing=0;strokeColor=#282c33;strokeOpacity=100;rounded=1;absoluteArcSize=1;arcSize=9;" parent="202" vertex="1">
                        <mxGeometry y="1634.625037500045" width="30" height="30" as="geometry"/>
                    </mxCell>
                </UserObject>
                <mxCell id="205" value="" style="group;dropTarget=0;pointerEvents=0;" parent="1" vertex="1">
                    <mxGeometry x="-615" y="-1879.6250375000375" width="30" height="1664.6250375000375" as="geometry"/>
                </mxCell>
                <UserObject label="" lucidchartObjectId="7xdak4uBo4MY" id="206">
                    <mxCell style="html=1;overflow=block;blockSpacing=1;whiteSpace=wrap;shape=mxgraph.sysml.x;strokeWidth=4;fontSize=13;spacing=0;strokeColor=#282c33;strokeOpacity=100;rounded=1;absoluteArcSize=1;arcSize=9;" parent="205" vertex="1">
                        <mxGeometry y="1634.6250375000375" width="30" height="30" as="geometry"/>
                    </mxCell>
                </UserObject>
                <mxCell id="208" value="" style="group;dropTarget=0;pointerEvents=0;" parent="1" vertex="1">
                    <mxGeometry x="-750" y="-1879.625037500045" width="30" height="1664.625037500045" as="geometry"/>
                </mxCell>
                <UserObject label="" lucidchartObjectId="WxdamDgEeaUH" id="209">
                    <mxCell style="html=1;overflow=block;blockSpacing=1;whiteSpace=wrap;shape=mxgraph.sysml.x;strokeWidth=4;fontSize=13;spacing=0;strokeColor=#282c33;strokeOpacity=100;rounded=1;absoluteArcSize=1;arcSize=9;" parent="208" vertex="1">
                        <mxGeometry y="1634.625037500045" width="30" height="30" as="geometry"/>
                    </mxCell>
                </UserObject>
                <mxCell id="211" value="" style="group;dropTarget=0;pointerEvents=0;" parent="1" vertex="1">
                    <mxGeometry x="-1065" y="-1879.6250375000525" width="30" height="1664.6250375000525" as="geometry"/>
                </mxCell>
                <UserObject label="" lucidchartObjectId="sudaeElZ-AGU" id="212">
                    <mxCell style="html=1;overflow=block;blockSpacing=1;whiteSpace=wrap;shape=mxgraph.sysml.x;strokeWidth=4;fontSize=13;spacing=0;strokeColor=#282c33;strokeOpacity=100;rounded=1;absoluteArcSize=1;arcSize=9;" parent="211" vertex="1">
                        <mxGeometry y="1634.6250375000525" width="30" height="30" as="geometry"/>
                    </mxCell>
                </UserObject>
                <UserObject label="&lt;div style=&quot;display: flex; justify-content: center; text-align: center; align-items: baseline; font-size: 0; line-height: 1.25;margin-top: -2px;&quot;&gt;&lt;span&gt;&lt;span style=&quot;font-size:13px;&quot;&gt;&amp;lt;&amp;lt;model&amp;gt;&amp;gt;&lt;br&gt;&lt;/span&gt;&lt;span style=&quot;font-size:13px;font-weight: bold;&quot;&gt;:Campground&lt;/span&gt;&lt;/span&gt;&lt;/div&gt;" lucidchartObjectId=".hcapOxIz8YY" id="214">
                    <mxCell style="html=1;overflow=block;blockSpacing=1;whiteSpace=wrap;fontSize=13;spacing=3.8;strokeColor=#282c33;strokeOpacity=100;rounded=1;absoluteArcSize=1;arcSize=9;strokeWidth=0.8;labelBackgroundColor=none;" parent="1" vertex="1">
                        <mxGeometry x="-345" y="-755" width="120" height="60" as="geometry"/>
                    </mxCell>
                </UserObject>
                <UserObject label="&lt;div style=&quot;display: flex; justify-content: center; text-align: center; align-items: baseline; font-size: 0; line-height: 1.25;margin-top: -2px;&quot;&gt;&lt;span&gt;&lt;span style=&quot;font-size:13px;&quot;&gt;&amp;lt;&amp;lt;router&amp;gt;&amp;gt;&lt;br&gt;&lt;/span&gt;&lt;span style=&quot;font-size:13px;font-weight: bold;&quot;&gt;:campground&lt;/span&gt;&lt;/span&gt;&lt;/div&gt;" lucidchartObjectId=".hcaqtILT8wB" id="215">
                    <mxCell style="html=1;overflow=block;blockSpacing=1;whiteSpace=wrap;fontSize=13;spacing=3.8;strokeColor=#282c33;strokeOpacity=100;rounded=1;absoluteArcSize=1;arcSize=9;strokeWidth=0.8;labelBackgroundColor=none;" parent="1" vertex="1">
                        <mxGeometry x="-960" y="-755" width="120" height="60" as="geometry"/>
                    </mxCell>
                </UserObject>
                <UserObject label="&lt;div style=&quot;display: flex; justify-content: center; text-align: center; align-items: baseline; font-size: 0; line-height: 1.25;margin-top: -2px;&quot;&gt;&lt;span&gt;&lt;span style=&quot;font-size:13px;&quot;&gt;&amp;lt;&amp;lt;mongoDB&amp;gt;&amp;gt;&lt;br&gt;&lt;/span&gt;&lt;span style=&quot;font-size:13px;font-weight: bold;&quot;&gt;:campgrounds &lt;/span&gt;&lt;/span&gt;&lt;/div&gt;" lucidchartObjectId=".hcamVlkb.Wu" id="216">
                    <mxCell style="html=1;overflow=block;blockSpacing=1;whiteSpace=wrap;fontSize=13;spacing=3.8;strokeColor=#282c33;strokeOpacity=100;rounded=1;absoluteArcSize=1;arcSize=9;strokeWidth=0.8;labelBackgroundColor=none;" parent="1" vertex="1">
                        <mxGeometry x="-150" y="-755" width="120" height="60" as="geometry"/>
                    </mxCell>
                </UserObject>
                <UserObject label="PUT" lucidchartObjectId=".hcaZXqLFscb" id="218">
                    <mxCell style="html=1;blockSpacing=1;whiteSpace=wrap;shape=mxgraph.sysml.package2;xSize=90;overflow=fill;fontSize=13;align=left;spacing=0;strokeColor=#282c33;strokeOpacity=100;fillOpacity=100;rounded=1;absoluteArcSize=1;arcSize=9;fillColor=#f9d2de;strokeWidth=1.5;" parent="1" vertex="1">
                        <mxGeometry x="-1305" y="-1385" width="1590" height="300" as="geometry"/>
                    </mxCell>
                </UserObject>
                <UserObject label="DELETE" lucidchartObjectId=".hcaWJqJYn~d" id="219">
                    <mxCell style="html=1;blockSpacing=1;whiteSpace=wrap;shape=mxgraph.sysml.package2;xSize=90;overflow=fill;fontSize=13;align=left;spacing=0;strokeColor=#282c33;strokeOpacity=100;fillOpacity=100;rounded=1;absoluteArcSize=1;arcSize=9;fillColor=#d1bcd2;strokeWidth=1.5;" parent="1" vertex="1">
                        <mxGeometry x="-1305" y="-1070" width="1590" height="300" as="geometry"/>
                    </mxCell>
                </UserObject>
                <UserObject label="POST" lucidchartObjectId=".hcah.vSmBwY" id="220">
                    <mxCell style="html=1;blockSpacing=1;whiteSpace=wrap;shape=mxgraph.sysml.package2;xSize=90;overflow=fill;fontSize=13;align=left;spacing=0;strokeColor=#282c33;strokeOpacity=100;fillOpacity=100;rounded=1;absoluteArcSize=1;arcSize=9;fillColor=#ffbbb1;strokeWidth=1.5;labelBackgroundColor=none;" parent="1" vertex="1">
                        <mxGeometry x="-1305" y="-680" width="1590" height="420" as="geometry"/>
                    </mxCell>
                </UserObject>
                <UserObject label="GET_ALL" lucidchartObjectId=".hcaPUX55YrL" id="221">
                    <mxCell style="html=1;blockSpacing=1;whiteSpace=wrap;shape=mxgraph.sysml.package2;xSize=90;overflow=fill;fontSize=13;align=left;spacing=0;strokeColor=#282c33;strokeOpacity=100;fillOpacity=100;rounded=1;absoluteArcSize=1;arcSize=9;fillColor=#ffeca9;strokeWidth=1.5;" parent="1" vertex="1">
                        <mxGeometry x="-1305" y="-1866" width="1590" height="225" as="geometry"/>
                    </mxCell>
                </UserObject>
                <UserObject label="&lt;div style=&quot;display: flex; justify-content: center; text-align: center; align-items: baseline; font-size: 0; line-height: 1.25;margin-top: -2px;&quot;&gt;&lt;span&gt;&lt;span style=&quot;font-size:13px;&quot;&gt;&amp;lt;&amp;lt;javaScript&amp;gt;&amp;gt;&#10;&lt;/span&gt;&lt;span style=&quot;font-size:13px;font-weight: bold;&quot;&gt;:server&lt;/span&gt;&lt;/span&gt;&lt;/div&gt;" lucidchartObjectId=".hcag8y35GD~" id="222">
                    <mxCell style="html=1;overflow=block;blockSpacing=1;whiteSpace=wrap;fontSize=13;spacing=3.8;strokeColor=#282c33;strokeOpacity=100;rounded=1;absoluteArcSize=1;arcSize=9;strokeWidth=0.8;labelBackgroundColor=none;" parent="1" vertex="1">
                        <mxGeometry x="-1110" y="-1940" width="120" height="60" as="geometry"/>
                    </mxCell>
                </UserObject>
                <UserObject label="&lt;div style=&quot;display: flex; justify-content: center; text-align: center; align-items: baseline; font-size: 0; line-height: 1.25;margin-top: -2px;&quot;&gt;&lt;span&gt;&lt;span style=&quot;font-size:13px;&quot;&gt;&amp;lt;&amp;lt;router&amp;gt;&amp;gt;&#10;&lt;/span&gt;&lt;span style=&quot;font-size:13px;font-weight: bold;&quot;&gt;:appointments&lt;/span&gt;&lt;/span&gt;&lt;/div&gt;" lucidchartObjectId=".hcaeaRzEovi" id="223">
                    <mxCell style="html=1;overflow=block;blockSpacing=1;whiteSpace=wrap;fontSize=13;spacing=3.8;strokeColor=#282c33;strokeOpacity=100;rounded=1;absoluteArcSize=1;arcSize=9;strokeWidth=0.8;labelBackgroundColor=none;" parent="1" vertex="1">
                        <mxGeometry x="-795" y="-1940" width="120" height="60" as="geometry"/>
                    </mxCell>
                </UserObject>
                <UserObject label="&lt;div style=&quot;display: flex; justify-content: center; text-align: center; align-items: baseline; font-size: 0; line-height: 1.25;margin-top: -2px;&quot;&gt;&lt;span&gt;&lt;span style=&quot;font-size:13px;&quot;&gt;&amp;lt;&amp;lt;controller&amp;gt;&amp;gt;&#10;&lt;/span&gt;&lt;span style=&quot;font-size:13px;font-weight: bold;&quot;&gt;:appointments&lt;/span&gt;&lt;/span&gt;&lt;/div&gt;" lucidchartObjectId=".hcaPj~bQkq." id="224">
                    <mxCell style="html=1;overflow=block;blockSpacing=1;whiteSpace=wrap;fontSize=13;spacing=3.8;strokeColor=#282c33;strokeOpacity=100;rounded=1;absoluteArcSize=1;arcSize=9;strokeWidth=0.8;labelBackgroundColor=none;" parent="1" vertex="1">
                        <mxGeometry x="-495" y="-1940" width="120" height="60" as="geometry"/>
                    </mxCell>
                </UserObject>
                <UserObject label="&lt;div style=&quot;display: flex; justify-content: center; text-align: center; align-items: baseline; font-size: 0; line-height: 1.25;margin-top: -2px;&quot;&gt;&lt;span&gt;&lt;span style=&quot;font-size:13px;&quot;&gt;&amp;lt;&amp;lt;model&amp;gt;&amp;gt;&#10;&lt;/span&gt;&lt;span style=&quot;font-size:13px;font-weight: bold;&quot;&gt;:Appointment&lt;/span&gt;&lt;/span&gt;&lt;/div&gt;" lucidchartObjectId=".hcajEN6XElL" id="225">
                    <mxCell style="html=1;overflow=block;blockSpacing=1;whiteSpace=wrap;fontSize=13;spacing=3.8;strokeColor=#282c33;strokeOpacity=100;rounded=1;absoluteArcSize=1;arcSize=9;strokeWidth=0.8;labelBackgroundColor=none;" parent="1" vertex="1">
                        <mxGeometry x="-15" y="-1940" width="120" height="60" as="geometry"/>
                    </mxCell>
                </UserObject>
                <UserObject label="&lt;div style=&quot;display: flex; justify-content: center; text-align: center; align-items: baseline; font-size: 0; line-height: 1.25;margin-top: -2px;&quot;&gt;&lt;span&gt;&lt;span style=&quot;font-size:13px;&quot;&gt;&amp;lt;&amp;lt;mongoDB&amp;gt;&amp;gt;&#10;&lt;/span&gt;&lt;span style=&quot;font-size:13px;font-weight: bold;&quot;&gt;:appointments&lt;/span&gt;&lt;/span&gt;&lt;/div&gt;" lucidchartObjectId=".hca3a7OGj4w" id="226">
                    <mxCell style="html=1;overflow=block;blockSpacing=1;whiteSpace=wrap;fontSize=13;spacing=3.8;strokeColor=#282c33;strokeOpacity=100;rounded=1;absoluteArcSize=1;arcSize=9;strokeWidth=0.8;labelBackgroundColor=none;" parent="1" vertex="1">
                        <mxGeometry x="165" y="-1940" width="120" height="60" as="geometry"/>
                    </mxCell>
                </UserObject>
                <UserObject label="" lucidchartObjectId=".hcaAR-FgrzK" id="227">
                    <mxCell style="html=1;overflow=block;blockSpacing=1;whiteSpace=wrap;fontSize=13;spacing=0;strokeColor=#282c33;strokeOpacity=100;fillOpacity=100;rounded=1;absoluteArcSize=1;arcSize=9;fillColor=#ffeca9;strokeWidth=0.8;" parent="1" vertex="1">
                        <mxGeometry x="-1065" y="-1820" width="30" height="45" as="geometry"/>
                    </mxCell>
                </UserObject>
                <UserObject label="" lucidchartObjectId=".hcaE4SE.oZZ" id="228">
                    <mxCell style="html=1;jettySize=18;whiteSpace=wrap;fontSize=13;strokeColor=#282c33;strokeOpacity=100;strokeWidth=0.8;rounded=1;arcSize=12;edgeStyle=orthogonalEdgeStyle;startArrow=block;startFill=1;endArrow=none;exitX=-0.012;exitY=0.125;exitPerimeter=0;entryX=1.012;entryY=0.459;entryPerimeter=0;" parent="1" source="230" target="227" edge="1">
                        <mxGeometry width="100" height="100" relative="1" as="geometry">
                            <Array as="points"/>
                        </mxGeometry>
                    </mxCell>
                </UserObject>
                <mxCell id="229" value="app.use('/appointments', appointments)" style="text;html=1;resizable=0;labelBackgroundColor=none;align=center;verticalAlign=middle;fontColor=#333333;fontSize=13.3;" parent="228" vertex="1">
                    <mxGeometry relative="1" as="geometry">
                        <mxPoint y="-8" as="offset"/>
                    </mxGeometry>
                </mxCell>
                <UserObject label="" lucidchartObjectId=".hcai4oStQT2" id="230">
                    <mxCell style="html=1;overflow=block;blockSpacing=1;whiteSpace=wrap;fontSize=13;spacing=0;strokeColor=#282c33;strokeOpacity=100;fillOpacity=100;rounded=1;absoluteArcSize=1;arcSize=9;fillColor=#ffeca9;strokeWidth=0.8;" parent="1" vertex="1">
                        <mxGeometry x="-750" y="-1805" width="30" height="45" as="geometry"/>
                    </mxCell>
                </UserObject>
                <UserObject label="" lucidchartObjectId=".hca40fS8UtZ" id="233">
                    <mxCell style="html=1;overflow=block;blockSpacing=1;whiteSpace=wrap;fontSize=13;spacing=0;strokeColor=#282c33;strokeOpacity=100;fillOpacity=100;rounded=1;absoluteArcSize=1;arcSize=9;fillColor=#ffeca9;strokeWidth=0.8;" parent="1" vertex="1">
                        <mxGeometry x="-450" y="-1775" width="30" height="120" as="geometry"/>
                    </mxCell>
                </UserObject>
                <UserObject label="" lucidchartObjectId=".hcahJAdI4Ao" id="234">
                    <mxCell style="html=1;overflow=block;blockSpacing=1;whiteSpace=wrap;fontSize=13;spacing=0;strokeColor=#282c33;strokeOpacity=100;fillOpacity=100;rounded=1;absoluteArcSize=1;arcSize=9;fillColor=#ffeca9;strokeWidth=0.8;" parent="1" vertex="1">
                        <mxGeometry x="210" y="-1745" width="30" height="60" as="geometry"/>
                    </mxCell>
                </UserObject>
                <UserObject label="" lucidchartObjectId=".hcaSMB_zKQk" id="235">
                    <mxCell style="html=1;jettySize=18;whiteSpace=wrap;fontSize=13;strokeColor=#282c33;strokeOpacity=100;strokeWidth=0.8;rounded=1;arcSize=12;edgeStyle=orthogonalEdgeStyle;startArrow=block;startFill=1;endArrow=none;exitX=-0.012;exitY=0.333;exitPerimeter=0;" parent="1" source="227" edge="1">
                        <mxGeometry width="100" height="100" relative="1" as="geometry">
                            <Array as="points"/>
                            <mxPoint x="-1290" y="-1805" as="targetPoint"/>
                        </mxGeometry>
                    </mxCell>
                </UserObject>
                <mxCell id="236" value="req.get('/appointments')" style="text;html=1;resizable=0;labelBackgroundColor=none;align=center;verticalAlign=middle;fontColor=#333333;fontSize=13.3;" parent="235" vertex="1">
                    <mxGeometry relative="1" as="geometry">
                        <mxPoint y="-7" as="offset"/>
                    </mxGeometry>
                </mxCell>
                <UserObject label="" lucidchartObjectId=".hcacOPGInsa" id="237">
                    <mxCell style="html=1;jettySize=18;whiteSpace=wrap;fontSize=13;strokeColor=#282c33;strokeOpacity=100;strokeWidth=0.8;rounded=1;arcSize=12;edgeStyle=orthogonalEdgeStyle;startArrow=block;startFill=1;endArrow=none;exitX=-0.012;exitY=0.167;exitPerimeter=0;" parent="1" source="241" edge="1">
                        <mxGeometry width="100" height="100" relative="1" as="geometry">
                            <Array as="points"/>
                            <mxPoint x="-420" y="-1745" as="targetPoint"/>
                        </mxGeometry>
                    </mxCell>
                </UserObject>
                <mxCell id="238" value="find()" style="text;html=1;resizable=0;labelBackgroundColor=none;align=center;verticalAlign=middle;fontColor=#333333;fontSize=13.3;" parent="237" vertex="1">
                    <mxGeometry relative="1" as="geometry">
                        <mxPoint y="-7" as="offset"/>
                    </mxGeometry>
                </mxCell>
                <UserObject label="" lucidchartObjectId=".hcacbIFbhGh" id="239">
                    <mxCell style="html=1;jettySize=18;whiteSpace=wrap;fontSize=13;strokeColor=#282c33;strokeOpacity=100;dashed=1;fixDash=1;dashPattern=6 5;strokeWidth=0.8;rounded=1;arcSize=12;edgeStyle=orthogonalEdgeStyle;startArrow=none;endArrow=block;endFill=0;entryX=1.012;entryY=0.667;entryPerimeter=0;" parent="1" target="241" edge="1">
                        <mxGeometry width="100" height="100" relative="1" as="geometry">
                            <Array as="points"/>
                            <mxPoint x="210" y="-1700" as="sourcePoint"/>
                        </mxGeometry>
                    </mxCell>
                </UserObject>
                <mxCell id="240" value="appointments" style="text;html=1;resizable=0;labelBackgroundColor=none;align=center;verticalAlign=middle;fontColor=#333333;fontSize=13.3;" parent="239" vertex="1">
                    <mxGeometry relative="1" as="geometry">
                        <mxPoint y="-7" as="offset"/>
                    </mxGeometry>
                </mxCell>
                <UserObject label="" lucidchartObjectId=".hcaqcko.uZ7" id="241">
                    <mxCell style="html=1;overflow=block;blockSpacing=1;whiteSpace=wrap;fontSize=13;spacing=0;strokeColor=#282c33;strokeOpacity=100;fillOpacity=100;rounded=1;absoluteArcSize=1;arcSize=9;fillColor=#ffeca9;strokeWidth=0.8;" parent="1" vertex="1">
                        <mxGeometry x="30" y="-1760" width="30" height="90" as="geometry"/>
                    </mxCell>
                </UserObject>
                <UserObject label="" lucidchartObjectId=".hcattL6JkPu" id="242">
                    <mxCell style="html=1;jettySize=18;whiteSpace=wrap;fontSize=13;strokeColor=#282c33;strokeOpacity=100;strokeWidth=0.8;rounded=1;arcSize=12;edgeStyle=orthogonalEdgeStyle;startArrow=block;startFill=1;endArrow=none;entryX=1.012;entryY=0.333;entryPerimeter=0;" parent="1" target="241" edge="1">
                        <mxGeometry width="100" height="100" relative="1" as="geometry">
                            <Array as="points"/>
                            <mxPoint x="210" y="-1730" as="sourcePoint"/>
                        </mxGeometry>
                    </mxCell>
                </UserObject>
                <mxCell id="243" value="AppointmentSchema" style="text;html=1;resizable=0;labelBackgroundColor=none;align=center;verticalAlign=middle;fontColor=#333333;fontSize=13.3;" parent="242" vertex="1">
                    <mxGeometry relative="1" as="geometry">
                        <mxPoint y="-7" as="offset"/>
                    </mxGeometry>
                </mxCell>
                <UserObject label="" lucidchartObjectId=".hcagkHx1CtO" id="244">
                    <mxCell style="html=1;jettySize=18;whiteSpace=wrap;fontSize=13;strokeColor=#282c33;strokeOpacity=100;dashed=1;fixDash=1;dashPattern=6 5;strokeWidth=0.8;rounded=1;arcSize=12;edgeStyle=orthogonalEdgeStyle;startArrow=none;endArrow=block;endFill=0;exitX=-0.012;exitY=0.833;exitPerimeter=0;entryX=1.012;entryY=0.75;entryPerimeter=0;" parent="1" source="241" target="233" edge="1">
                        <mxGeometry width="100" height="100" relative="1" as="geometry">
                            <Array as="points"/>
                        </mxGeometry>
                    </mxCell>
                </UserObject>
                <mxCell id="245" value="appointments" style="text;html=1;resizable=0;labelBackgroundColor=none;align=center;verticalAlign=middle;fontColor=#333333;fontSize=13.3;" parent="244" vertex="1">
                    <mxGeometry relative="1" as="geometry">
                        <mxPoint y="-7" as="offset"/>
                    </mxGeometry>
                </mxCell>
                <UserObject label="" lucidchartObjectId=".hcaeRv_gAng" id="246">
                    <mxCell style="html=1;jettySize=18;whiteSpace=wrap;fontSize=13;strokeColor=#282c33;strokeOpacity=100;dashed=1;fixDash=1;dashPattern=6 5;strokeWidth=0.8;rounded=1;arcSize=12;edgeStyle=orthogonalEdgeStyle;startArrow=none;endArrow=block;endFill=0;" parent="1" edge="1">
                        <mxGeometry width="100" height="100" relative="1" as="geometry">
                            <Array as="points"/>
                            <mxPoint x="-450" y="-1670" as="sourcePoint"/>
                            <mxPoint x="-1290" y="-1670" as="targetPoint"/>
                        </mxGeometry>
                    </mxCell>
                </UserObject>
                <mxCell id="247" value="response" style="text;html=1;resizable=0;labelBackgroundColor=none;align=center;verticalAlign=middle;fontColor=#333333;fontSize=13.3;" parent="246" vertex="1">
                    <mxGeometry relative="1" as="geometry">
                        <mxPoint y="-7" as="offset"/>
                    </mxGeometry>
                </mxCell>
                <UserObject label="" lucidchartObjectId=".hcawI225isk" id="248">
                    <mxCell style="html=1;overflow=block;blockSpacing=1;whiteSpace=wrap;fontSize=13;spacing=0;strokeColor=#282c33;strokeOpacity=100;fillOpacity=100;rounded=1;absoluteArcSize=1;arcSize=9;fillColor=#ffbbb1;strokeWidth=0.8;" parent="1" vertex="1">
                        <mxGeometry x="-1065" y="-620" width="30" height="45" as="geometry"/>
                    </mxCell>
                </UserObject>
                <UserObject label="" lucidchartObjectId=".hcaRRE2MDlc" id="249">
                    <mxCell style="html=1;jettySize=18;whiteSpace=wrap;fontSize=13;strokeColor=#282c33;strokeOpacity=100;strokeWidth=0.8;rounded=1;arcSize=12;edgeStyle=orthogonalEdgeStyle;startArrow=block;startFill=1;endArrow=none;exitX=-0.012;exitY=0.33;exitPerimeter=0;entryX=1.012;entryY=0.663;entryPerimeter=0;" parent="1" source="251" target="248" edge="1">
                        <mxGeometry width="100" height="100" relative="1" as="geometry">
                            <Array as="points"/>
                        </mxGeometry>
                    </mxCell>
                </UserObject>
                <mxCell id="250" value="app.use&lt;br&gt;('/campgrounds',&lt;br&gt;campgrounds)" style="text;html=1;resizable=0;labelBackgroundColor=none;align=center;verticalAlign=middle;fontColor=#333333;fontSize=13.3;" parent="249" vertex="1">
                    <mxGeometry relative="1" as="geometry">
                        <mxPoint y="-26" as="offset"/>
                    </mxGeometry>
                </mxCell>
                <UserObject label="" lucidchartObjectId=".hca6U_gLEor" id="251">
                    <mxCell style="html=1;overflow=block;blockSpacing=1;whiteSpace=wrap;fontSize=13;spacing=0;strokeColor=#282c33;strokeOpacity=100;fillOpacity=100;rounded=1;absoluteArcSize=1;arcSize=9;fillColor=#ffbbb1;strokeWidth=0.8;" parent="1" vertex="1">
                        <mxGeometry x="-915" y="-605" width="30" height="45" as="geometry"/>
                    </mxCell>
                </UserObject>
                <UserObject label="" lucidchartObjectId=".hcaxrZ-pqyl" id="252">
                    <mxCell style="html=1;jettySize=18;whiteSpace=wrap;fontSize=13;strokeColor=#282c33;strokeOpacity=100;strokeWidth=0.8;rounded=1;arcSize=12;edgeStyle=orthogonalEdgeStyle;startArrow=block;startFill=1;endArrow=none;exitX=-0.012;exitY=0.333;exitPerimeter=0;entryX=1.012;entryY=0.666;entryPerimeter=0;" parent="1" source="254" target="251" edge="1">
                        <mxGeometry width="100" height="100" relative="1" as="geometry">
                            <Array as="points"/>
                        </mxGeometry>
                    </mxCell>
                </UserObject>
                <mxCell id="253" value="router.use&#10;(&quot;/:id/appointments&quot;,&#10;appointmentRouter)" style="text;html=1;resizable=0;labelBackgroundColor=none;align=center;verticalAlign=middle;fontColor=#333333;fontSize=13.3;" parent="252" vertex="1">
                    <mxGeometry relative="1" as="geometry">
                        <mxPoint x="-2" y="-25" as="offset"/>
                    </mxGeometry>
                </mxCell>
                <UserObject label="" lucidchartObjectId=".hcaB0XFNuv2" id="254">
                    <mxCell style="html=1;overflow=block;blockSpacing=1;whiteSpace=wrap;fontSize=13;spacing=0;strokeColor=#282c33;strokeOpacity=100;fillOpacity=100;rounded=1;absoluteArcSize=1;arcSize=9;fillColor=#ffbbb1;strokeWidth=0.8;" parent="1" vertex="1">
                        <mxGeometry x="-750" y="-590" width="30" height="45" as="geometry"/>
                    </mxCell>
                </UserObject>
                <UserObject label="" lucidchartObjectId=".hcaq_d9TRiY" id="255">
                    <mxCell style="html=1;jettySize=18;whiteSpace=wrap;fontSize=13;strokeColor=#282c33;strokeOpacity=100;strokeWidth=0.8;rounded=1;arcSize=12;edgeStyle=orthogonalEdgeStyle;startArrow=block;startFill=1;endArrow=none;exitX=-0.012;exitY=0.071;exitPerimeter=0;" parent="1" source="262" edge="1">
                        <mxGeometry width="100" height="100" relative="1" as="geometry">
                            <Array as="points"/>
                            <mxPoint x="-585" y="-470" as="targetPoint"/>
                        </mxGeometry>
                    </mxCell>
                </UserObject>
                <mxCell id="256" value="addAppointment" style="text;html=1;resizable=0;labelBackgroundColor=none;align=center;verticalAlign=middle;fontColor=#333333;fontSize=13.3;" parent="255" vertex="1">
                    <mxGeometry relative="1" as="geometry">
                        <mxPoint y="-8" as="offset"/>
                    </mxGeometry>
                </mxCell>
                <UserObject label="" lucidchartObjectId=".hca9VWdkXF." id="257">
                    <mxCell style="html=1;overflow=block;blockSpacing=1;whiteSpace=wrap;fontSize=13;spacing=0;strokeColor=#282c33;strokeOpacity=100;fillOpacity=100;rounded=1;absoluteArcSize=1;arcSize=9;fillColor=#ffbbb1;strokeWidth=0.8;" parent="1" vertex="1">
                        <mxGeometry x="-300" y="-470" width="30" height="90" as="geometry"/>
                    </mxCell>
                </UserObject>
                <UserObject label="" lucidchartObjectId=".hcasKlClpAM" id="258">
                    <mxCell style="html=1;jettySize=18;whiteSpace=wrap;fontSize=13;strokeColor=#282c33;strokeOpacity=100;dashed=1;fixDash=1;dashPattern=6 5;strokeWidth=0.8;rounded=1;arcSize=12;edgeStyle=orthogonalEdgeStyle;startArrow=none;endArrow=block;endFill=0;exitX=-0.012;exitY=0.738;exitPerimeter=0;entryX=1.012;entryY=0.659;entryPerimeter=0;" parent="1" source="271" target="257" edge="1">
                        <mxGeometry width="100" height="100" relative="1" as="geometry">
                            <Array as="points"/>
                        </mxGeometry>
                    </mxCell>
                </UserObject>
                <mxCell id="259" value="campground" style="text;html=1;resizable=0;labelBackgroundColor=none;align=center;verticalAlign=middle;fontColor=#333333;fontSize=13.3;" parent="258" vertex="1">
                    <mxGeometry relative="1" as="geometry">
                        <mxPoint y="-8" as="offset"/>
                    </mxGeometry>
                </mxCell>
                <UserObject label="" lucidchartObjectId=".hcafB80UGA~" id="260">
                    <mxCell style="html=1;jettySize=18;whiteSpace=wrap;fontSize=13;strokeColor=#282c33;strokeOpacity=100;dashed=1;fixDash=1;dashPattern=6 5;strokeWidth=0.8;rounded=1;arcSize=12;edgeStyle=orthogonalEdgeStyle;startArrow=none;endArrow=block;endFill=0;" parent="1" edge="1">
                        <mxGeometry width="100" height="100" relative="1" as="geometry">
                            <Array as="points"/>
                            <mxPoint x="-450" y="-290" as="sourcePoint"/>
                            <mxPoint x="-1290" y="-290" as="targetPoint"/>
                        </mxGeometry>
                    </mxCell>
                </UserObject>
                <mxCell id="261" value="response" style="text;html=1;resizable=0;labelBackgroundColor=none;align=center;verticalAlign=middle;fontColor=#333333;fontSize=13.3;" parent="260" vertex="1">
                    <mxGeometry relative="1" as="geometry">
                        <mxPoint y="-8" as="offset"/>
                    </mxGeometry>
                </mxCell>
                <UserObject label="" lucidchartObjectId=".hcaQcGZ9V-I" id="262">
                    <mxCell style="html=1;overflow=block;blockSpacing=1;whiteSpace=wrap;fontSize=13;spacing=0;strokeColor=#282c33;strokeOpacity=100;fillOpacity=100;rounded=1;absoluteArcSize=1;arcSize=9;fillColor=#ffbbb1;strokeWidth=0.8;" parent="1" vertex="1">
                        <mxGeometry x="-450" y="-485" width="30" height="210" as="geometry"/>
                    </mxCell>
                </UserObject>
                <UserObject label="" lucidchartObjectId=".hcapJE0vVqo" id="263">
                    <mxCell style="html=1;jettySize=18;whiteSpace=wrap;fontSize=13;strokeColor=#282c33;strokeOpacity=100;strokeWidth=0.8;rounded=1;arcSize=12;edgeStyle=orthogonalEdgeStyle;startArrow=block;startFill=1;endArrow=none;exitX=-0.012;exitY=0.168;exitPerimeter=0;entryX=1.012;entryY=0.143;entryPerimeter=0;" parent="1" source="257" target="262" edge="1">
                        <mxGeometry width="100" height="100" relative="1" as="geometry">
                            <Array as="points"/>
                        </mxGeometry>
                    </mxCell>
                </UserObject>
                <mxCell id="264" value="findById&#10;(req.params.id)" style="text;html=1;resizable=0;labelBackgroundColor=none;align=center;verticalAlign=middle;fontColor=#333333;fontSize=13.3;" parent="263" vertex="1">
                    <mxGeometry relative="1" as="geometry">
                        <mxPoint x="-2" y="-15" as="offset"/>
                    </mxGeometry>
                </mxCell>
                <UserObject label="" lucidchartObjectId=".hcal2bHdLeA" id="265">
                    <mxCell style="html=1;jettySize=18;whiteSpace=wrap;fontSize=13;strokeColor=#282c33;strokeOpacity=100;dashed=1;fixDash=1;dashPattern=6 5;strokeWidth=0.8;rounded=1;arcSize=12;edgeStyle=orthogonalEdgeStyle;startArrow=none;endArrow=block;endFill=0;exitX=-0.012;exitY=0.824;exitPerimeter=0;entryX=1.012;entryY=0.425;entryPerimeter=0;" parent="1" source="257" target="262" edge="1">
                        <mxGeometry width="100" height="100" relative="1" as="geometry">
                            <Array as="points"/>
                        </mxGeometry>
                    </mxCell>
                </UserObject>
                <mxCell id="266" value="campground" style="text;html=1;resizable=0;labelBackgroundColor=none;align=center;verticalAlign=middle;fontColor=#333333;fontSize=13.3;" parent="265" vertex="1">
                    <mxGeometry relative="1" as="geometry">
                        <mxPoint y="-8" as="offset"/>
                    </mxGeometry>
                </mxCell>
                <UserObject label="" lucidchartObjectId=".hcaMWdPtAET" id="267">
                    <mxCell style="html=1;jettySize=18;whiteSpace=wrap;fontSize=13;strokeColor=#282c33;strokeOpacity=100;strokeWidth=0.8;rounded=1;arcSize=12;edgeStyle=orthogonalEdgeStyle;startArrow=block;startFill=1;endArrow=none;exitX=-0.012;exitY=0.333;exitPerimeter=0;" parent="1" source="248" edge="1">
                        <mxGeometry width="100" height="100" relative="1" as="geometry">
                            <Array as="points"/>
                            <mxPoint x="-1290" y="-605" as="targetPoint"/>
                        </mxGeometry>
                    </mxCell>
                </UserObject>
                <mxCell id="268" value="req.post&lt;br&gt;('/campgrounds/:id/appointments')" style="text;html=1;resizable=0;labelBackgroundColor=none;align=center;verticalAlign=middle;fontColor=#333333;fontSize=13.3;" parent="267" vertex="1">
                    <mxGeometry relative="1" as="geometry">
                        <mxPoint y="-18" as="offset"/>
                    </mxGeometry>
                </mxCell>
                <UserObject label="" lucidchartObjectId=".hcacTGA20Wx" id="269">
                    <mxCell style="html=1;jettySize=18;whiteSpace=wrap;fontSize=13;strokeColor=#282c33;strokeOpacity=100;strokeWidth=0.8;rounded=1;arcSize=12;edgeStyle=orthogonalEdgeStyle;startArrow=block;startFill=1;endArrow=none;exitX=-0.012;exitY=0.248;exitPerimeter=0;entryX=1.012;entryY=0.332;entryPerimeter=0;" parent="1" source="271" target="257" edge="1">
                        <mxGeometry width="100" height="100" relative="1" as="geometry">
                            <Array as="points"/>
                        </mxGeometry>
                    </mxCell>
                </UserObject>
                <mxCell id="270" value="CampgroundSchema" style="text;html=1;resizable=0;labelBackgroundColor=none;align=center;verticalAlign=middle;fontColor=#333333;fontSize=13.3;" parent="269" vertex="1">
                    <mxGeometry relative="1" as="geometry">
                        <mxPoint y="-8" as="offset"/>
                    </mxGeometry>
                </mxCell>
                <UserObject label="" lucidchartObjectId=".hcas0LXtd72" id="271">
                    <mxCell style="html=1;overflow=block;blockSpacing=1;whiteSpace=wrap;fontSize=13;spacing=0;strokeColor=#282c33;strokeOpacity=100;fillOpacity=100;rounded=1;absoluteArcSize=1;arcSize=9;fillColor=#ffbbb1;strokeWidth=0.8;" parent="1" vertex="1">
                        <mxGeometry x="-105" y="-455" width="30" height="60" as="geometry"/>
                    </mxCell>
                </UserObject>
                <UserObject label="" lucidchartObjectId=".hcauCsmPYBL" id="272">
                    <mxCell style="html=1;overflow=block;blockSpacing=1;whiteSpace=wrap;fontSize=13;spacing=0;strokeColor=#282c33;strokeOpacity=100;fillOpacity=100;rounded=1;absoluteArcSize=1;arcSize=9;fillColor=#ffbbb1;strokeWidth=0.8;" parent="1" vertex="1">
                        <mxGeometry x="30" y="-380" width="30" height="90" as="geometry"/>
                    </mxCell>
                </UserObject>
                <UserObject label="" lucidchartObjectId=".hcaRHExiQyQ" id="273">
                    <mxCell style="html=1;jettySize=18;whiteSpace=wrap;fontSize=13;strokeColor=#282c33;strokeOpacity=100;dashed=1;fixDash=1;dashPattern=6 5;strokeWidth=0.8;rounded=1;arcSize=12;edgeStyle=orthogonalEdgeStyle;startArrow=none;endArrow=block;endFill=0;exitX=-0.012;exitY=0.738;exitPerimeter=0;entryX=1.012;entryY=0.659;entryPerimeter=0;" parent="1" source="279" target="272" edge="1">
                        <mxGeometry width="100" height="100" relative="1" as="geometry">
                            <Array as="points"/>
                        </mxGeometry>
                    </mxCell>
                </UserObject>
                <mxCell id="274" value="appointment" style="text;html=1;resizable=0;labelBackgroundColor=none;align=center;verticalAlign=middle;fontColor=#333333;fontSize=13.3;" parent="273" vertex="1">
                    <mxGeometry relative="1" as="geometry">
                        <mxPoint y="-8" as="offset"/>
                    </mxGeometry>
                </mxCell>
                <UserObject label="" lucidchartObjectId=".hcaWFNdQ0L6" id="275">
                    <mxCell style="html=1;jettySize=18;whiteSpace=wrap;fontSize=13;strokeColor=#282c33;strokeOpacity=100;dashed=1;fixDash=1;dashPattern=6 5;strokeWidth=0.8;rounded=1;arcSize=12;edgeStyle=orthogonalEdgeStyle;startArrow=none;endArrow=block;endFill=0;exitX=-0.012;exitY=0.824;exitPerimeter=0;entryX=1.012;entryY=0.853;entryPerimeter=0;" parent="1" source="272" target="262" edge="1">
                        <mxGeometry width="100" height="100" relative="1" as="geometry">
                            <Array as="points"/>
                        </mxGeometry>
                    </mxCell>
                </UserObject>
                <mxCell id="276" value="appointment" style="text;html=1;resizable=0;labelBackgroundColor=none;align=center;verticalAlign=middle;fontColor=#333333;fontSize=13.3;" parent="275" vertex="1">
                    <mxGeometry relative="1" as="geometry">
                        <mxPoint y="-8" as="offset"/>
                    </mxGeometry>
                </mxCell>
                <UserObject label="" lucidchartObjectId=".hca_8s7n.d1" id="277">
                    <mxCell style="html=1;jettySize=18;whiteSpace=wrap;fontSize=13;strokeColor=#282c33;strokeOpacity=100;strokeWidth=0.8;rounded=1;arcSize=12;edgeStyle=orthogonalEdgeStyle;startArrow=block;startFill=1;endArrow=none;entryX=1.012;entryY=0.333;entryPerimeter=0;" parent="1" target="272" edge="1">
                        <mxGeometry width="100" height="100" relative="1" as="geometry">
                            <Array as="points"/>
                            <mxPoint x="210" y="-350" as="sourcePoint"/>
                        </mxGeometry>
                    </mxCell>
                </UserObject>
                <mxCell id="278" value="AppointmentSchema" style="text;html=1;resizable=0;labelBackgroundColor=none;align=center;verticalAlign=middle;fontColor=#333333;fontSize=13.3;" parent="277" vertex="1">
                    <mxGeometry relative="1" as="geometry">
                        <mxPoint y="-8" as="offset"/>
                    </mxGeometry>
                </mxCell>
                <UserObject label="" lucidchartObjectId=".hcaS8HPmQBJ" id="279">
                    <mxCell style="html=1;overflow=block;blockSpacing=1;whiteSpace=wrap;fontSize=13;spacing=0;strokeColor=#282c33;strokeOpacity=100;fillOpacity=100;rounded=1;absoluteArcSize=1;arcSize=9;fillColor=#ffbbb1;strokeWidth=0.8;" parent="1" vertex="1">
                        <mxGeometry x="210" y="-365" width="30" height="60" as="geometry"/>
                    </mxCell>
                </UserObject>
                <UserObject label="&lt;div style=&quot;display: flex; justify-content: center; text-align: center; align-items: baseline; font-size: 0; line-height: 1.25;margin-top: -2px;&quot;&gt;&lt;span&gt;&lt;span style=&quot;font-size:13px;&quot;&gt;&amp;lt;&amp;lt;middleware&amp;gt;&amp;gt;&#10;&lt;/span&gt;&lt;span style=&quot;font-size:13px;font-weight: bold;&quot;&gt;:auth&lt;/span&gt;&lt;/span&gt;&lt;/div&gt;" lucidchartObjectId="3wca.a-NsvwE" id="280">
                    <mxCell style="html=1;overflow=block;blockSpacing=1;whiteSpace=wrap;fontSize=13;spacing=3.8;strokeColor=#282c33;strokeOpacity=100;rounded=1;absoluteArcSize=1;arcSize=9;strokeWidth=0.8;labelBackgroundColor=none;" parent="1" vertex="1">
                        <mxGeometry x="-660" y="-1940" width="120" height="60" as="geometry"/>
                    </mxCell>
                </UserObject>
                <UserObject label="" lucidchartObjectId="WBcaiu8Ig4Tx" id="281">
                    <mxCell style="html=1;overflow=block;blockSpacing=1;whiteSpace=wrap;fontSize=13;spacing=0;strokeColor=#282c33;strokeOpacity=100;fillOpacity=100;rounded=1;absoluteArcSize=1;arcSize=9;fillColor=#ffbbb1;strokeWidth=0.8;" parent="1" vertex="1">
                        <mxGeometry x="-615" y="-575" width="30" height="120" as="geometry"/>
                    </mxCell>
                </UserObject>
                <UserObject label="" lucidchartObjectId="bEcanKWbMRzO" id="282">
                    <mxCell style="html=1;jettySize=18;whiteSpace=wrap;fontSize=13;strokeColor=#282c33;strokeOpacity=100;strokeWidth=0.8;rounded=1;arcSize=12;edgeStyle=orthogonalEdgeStyle;startArrow=none;endArrow=block;endFill=1;exitX=1.012;exitY=0.672;exitPerimeter=0;entryX=-0.012;entryY=0.127;entryPerimeter=0;" parent="1" source="254" target="281" edge="1">
                        <mxGeometry width="100" height="100" relative="1" as="geometry">
                            <Array as="points"/>
                        </mxGeometry>
                    </mxCell>
                </UserObject>
                <mxCell id="283" value="protect" style="text;html=1;resizable=0;labelBackgroundColor=none;align=center;verticalAlign=middle;fontColor=#333333;fontSize=13.3;" parent="282" vertex="1">
                    <mxGeometry relative="1" as="geometry">
                        <mxPoint x="-3" y="-8" as="offset"/>
                    </mxGeometry>
                </mxCell>
                <UserObject label="" lucidchartObjectId="NFcadRhGolUo" id="284">
                    <mxCell style="html=1;jettySize=18;whiteSpace=wrap;fontSize=13;strokeColor=#282c33;strokeOpacity=100;strokeWidth=0.8;rounded=1;arcSize=12;edgeStyle=orthogonalEdgeStyle;startArrow=none;endArrow=block;endFill=1;exitX=1.012;exitY=0.25;exitPerimeter=0;entryX=1;entryY=0.514;entryPerimeter=0;entryDx=0;entryDy=0;" parent="1" source="281" target="281" edge="1">
                        <mxGeometry width="100" height="100" relative="1" as="geometry">
                            <Array as="points">
                                <mxPoint x="-570" y="-545"/>
                                <mxPoint x="-570" y="-513"/>
                            </Array>
                        </mxGeometry>
                    </mxCell>
                </UserObject>
                <mxCell id="285" value="authorize&#10;(&quot;admin&quot;, &#10; &quot;user&quot;)" style="text;html=1;resizable=0;labelBackgroundColor=none;align=center;verticalAlign=middle;fontColor=#333333;fontSize=13.3;" parent="284" vertex="1">
                    <mxGeometry relative="1" as="geometry">
                        <mxPoint x="31" y="-12" as="offset"/>
                    </mxGeometry>
                </mxCell>
                <UserObject label="" lucidchartObjectId="W9cal8CSpcvT" id="286">
                    <mxCell style="html=1;overflow=block;blockSpacing=1;whiteSpace=wrap;fontSize=13;spacing=0;strokeColor=#282c33;strokeOpacity=100;fillOpacity=100;rounded=1;absoluteArcSize=1;arcSize=9;fillColor=#ffeca9;strokeWidth=0.8;" parent="1" vertex="1">
                        <mxGeometry x="-615" y="-1800" width="30" height="60" as="geometry"/>
                    </mxCell>
                </UserObject>
                <UserObject label="" lucidchartObjectId="_~caxyJBfXfp" id="289">
                    <mxCell style="html=1;overflow=block;blockSpacing=1;whiteSpace=wrap;fontSize=13;spacing=0;strokeColor=#282c33;strokeOpacity=100;fillOpacity=100;rounded=1;absoluteArcSize=1;arcSize=9;fillColor=#ffdba9;strokeWidth=0.8;" parent="1" vertex="1">
                        <mxGeometry x="-1065" y="-1580" width="30" height="45" as="geometry"/>
                    </mxCell>
                </UserObject>
                <UserObject label="" lucidchartObjectId="_~caCPD92zxs" id="290">
                    <mxCell style="html=1;jettySize=18;whiteSpace=wrap;fontSize=13;strokeColor=#282c33;strokeOpacity=100;strokeWidth=0.8;rounded=1;arcSize=12;edgeStyle=orthogonalEdgeStyle;startArrow=block;startFill=1;endArrow=none;entryX=1.012;entryY=0.667;entryPerimeter=0;" parent="1" target="289" edge="1">
                        <mxGeometry width="100" height="100" relative="1" as="geometry">
                            <Array as="points"/>
                            <mxPoint x="-750" y="-1550" as="sourcePoint"/>
                        </mxGeometry>
                    </mxCell>
                </UserObject>
                <mxCell id="291" value="app.use('/appointments', appointments)" style="text;html=1;resizable=0;labelBackgroundColor=none;align=center;verticalAlign=middle;fontColor=#333333;fontSize=13.3;" parent="290" vertex="1">
                    <mxGeometry relative="1" as="geometry">
                        <mxPoint y="-7" as="offset"/>
                    </mxGeometry>
                </mxCell>
                <UserObject label="" lucidchartObjectId="_~caKbZmyztD" id="292">
                    <mxCell style="html=1;overflow=block;blockSpacing=1;whiteSpace=wrap;fontSize=13;spacing=0;strokeColor=#282c33;strokeOpacity=100;fillOpacity=100;rounded=1;absoluteArcSize=1;arcSize=9;fillColor=#ffdba9;strokeWidth=0.8;" parent="1" vertex="1">
                        <mxGeometry x="-750" y="-1565" width="30" height="45" as="geometry"/>
                    </mxCell>
                </UserObject>
                <UserObject label="" lucidchartObjectId="_~caGtZYG~F." id="295">
                    <mxCell style="html=1;overflow=block;blockSpacing=1;whiteSpace=wrap;fontSize=13;spacing=0;strokeColor=#282c33;strokeOpacity=100;fillOpacity=100;rounded=1;absoluteArcSize=1;arcSize=9;fillColor=#ffdba9;strokeWidth=0.8;" parent="1" vertex="1">
                        <mxGeometry x="-450" y="-1535" width="30" height="120" as="geometry"/>
                    </mxCell>
                </UserObject>
                <UserObject label="" lucidchartObjectId="_~cavM6WiAgh" id="296">
                    <mxCell style="html=1;overflow=block;blockSpacing=1;whiteSpace=wrap;fontSize=13;spacing=0;strokeColor=#282c33;strokeOpacity=100;fillOpacity=100;rounded=1;absoluteArcSize=1;arcSize=9;fillColor=#ffdba9;strokeWidth=0.8;" parent="1" vertex="1">
                        <mxGeometry x="210" y="-1505" width="30" height="60" as="geometry"/>
                    </mxCell>
                </UserObject>
                <UserObject label="" lucidchartObjectId="_~ca9ZR-tiXu" id="297">
                    <mxCell style="html=1;jettySize=18;whiteSpace=wrap;fontSize=13;strokeColor=#282c33;strokeOpacity=100;strokeWidth=0.8;rounded=1;arcSize=12;edgeStyle=orthogonalEdgeStyle;startArrow=block;startFill=1;endArrow=none;exitX=-0.012;exitY=0.333;exitPerimeter=0;" parent="1" source="289" edge="1">
                        <mxGeometry width="100" height="100" relative="1" as="geometry">
                            <Array as="points"/>
                            <mxPoint x="-1290" y="-1565" as="targetPoint"/>
                        </mxGeometry>
                    </mxCell>
                </UserObject>
                <mxCell id="298" value="req.get('/appointments/:id')" style="text;html=1;resizable=0;labelBackgroundColor=none;align=center;verticalAlign=middle;fontColor=#333333;fontSize=13.3;" parent="297" vertex="1">
                    <mxGeometry relative="1" as="geometry">
                        <mxPoint y="-7" as="offset"/>
                    </mxGeometry>
                </mxCell>
                <UserObject label="" lucidchartObjectId="_~caSu8zfFS5" id="299">
                    <mxCell style="html=1;jettySize=18;whiteSpace=wrap;fontSize=13;strokeColor=#282c33;strokeOpacity=100;strokeWidth=0.8;rounded=1;arcSize=12;edgeStyle=orthogonalEdgeStyle;startArrow=block;startFill=1;endArrow=none;exitX=-0.012;exitY=0.167;exitPerimeter=0;" parent="1" source="303" edge="1">
                        <mxGeometry width="100" height="100" relative="1" as="geometry">
                            <Array as="points"/>
                            <mxPoint x="-420" y="-1505" as="targetPoint"/>
                        </mxGeometry>
                    </mxCell>
                </UserObject>
                <mxCell id="300" value="findById(req.params.id)" style="text;html=1;resizable=0;labelBackgroundColor=none;align=center;verticalAlign=middle;fontColor=#333333;fontSize=13.3;" parent="299" vertex="1">
                    <mxGeometry relative="1" as="geometry">
                        <mxPoint y="-7" as="offset"/>
                    </mxGeometry>
                </mxCell>
                <UserObject label="" lucidchartObjectId="_~cafIHCTxmQ" id="301">
                    <mxCell style="html=1;jettySize=18;whiteSpace=wrap;fontSize=13;strokeColor=#282c33;strokeOpacity=100;dashed=1;fixDash=1;dashPattern=6 5;strokeWidth=0.8;rounded=1;arcSize=12;edgeStyle=orthogonalEdgeStyle;startArrow=none;endArrow=block;endFill=0;entryX=1.012;entryY=0.667;entryPerimeter=0;" parent="1" target="303" edge="1">
                        <mxGeometry width="100" height="100" relative="1" as="geometry">
                            <Array as="points"/>
                            <mxPoint x="210" y="-1460" as="sourcePoint"/>
                        </mxGeometry>
                    </mxCell>
                </UserObject>
                <mxCell id="302" value="appointment" style="text;html=1;resizable=0;labelBackgroundColor=none;align=center;verticalAlign=middle;fontColor=#333333;fontSize=13.3;" parent="301" vertex="1">
                    <mxGeometry relative="1" as="geometry">
                        <mxPoint y="-7" as="offset"/>
                    </mxGeometry>
                </mxCell>
                <UserObject label="" lucidchartObjectId="_~caAwGPirub" id="303">
                    <mxCell style="html=1;overflow=block;blockSpacing=1;whiteSpace=wrap;fontSize=13;spacing=0;strokeColor=#282c33;strokeOpacity=100;fillOpacity=100;rounded=1;absoluteArcSize=1;arcSize=9;fillColor=#ffdba9;strokeWidth=0.8;" parent="1" vertex="1">
                        <mxGeometry x="30" y="-1520" width="30" height="90" as="geometry"/>
                    </mxCell>
                </UserObject>
                <UserObject label="" lucidchartObjectId="_~cazfq~wmZs" id="304">
                    <mxCell style="html=1;jettySize=18;whiteSpace=wrap;fontSize=13;strokeColor=#282c33;strokeOpacity=100;strokeWidth=0.8;rounded=1;arcSize=12;edgeStyle=orthogonalEdgeStyle;startArrow=block;startFill=1;endArrow=none;entryX=1.012;entryY=0.333;entryPerimeter=0;" parent="1" target="303" edge="1">
                        <mxGeometry width="100" height="100" relative="1" as="geometry">
                            <Array as="points"/>
                            <mxPoint x="210" y="-1490" as="sourcePoint"/>
                        </mxGeometry>
                    </mxCell>
                </UserObject>
                <mxCell id="305" value="AppointmentSchema" style="text;html=1;resizable=0;labelBackgroundColor=none;align=center;verticalAlign=middle;fontColor=#333333;fontSize=13.3;" parent="304" vertex="1">
                    <mxGeometry relative="1" as="geometry">
                        <mxPoint y="-7" as="offset"/>
                    </mxGeometry>
                </mxCell>
                <UserObject label="" lucidchartObjectId="_~ca3~4pxDGJ" id="306">
                    <mxCell style="html=1;jettySize=18;whiteSpace=wrap;fontSize=13;strokeColor=#282c33;strokeOpacity=100;dashed=1;fixDash=1;dashPattern=6 5;strokeWidth=0.8;rounded=1;arcSize=12;edgeStyle=orthogonalEdgeStyle;startArrow=none;endArrow=block;endFill=0;exitX=-0.012;exitY=0.833;exitPerimeter=0;entryX=1.012;entryY=0.75;entryPerimeter=0;" parent="1" source="303" target="295" edge="1">
                        <mxGeometry width="100" height="100" relative="1" as="geometry">
                            <Array as="points"/>
                        </mxGeometry>
                    </mxCell>
                </UserObject>
                <mxCell id="307" value="appointment" style="text;html=1;resizable=0;labelBackgroundColor=none;align=center;verticalAlign=middle;fontColor=#333333;fontSize=13.3;" parent="306" vertex="1">
                    <mxGeometry relative="1" as="geometry">
                        <mxPoint y="-7" as="offset"/>
                    </mxGeometry>
                </mxCell>
                <UserObject label="" lucidchartObjectId="_~caEq4ieJvM" id="308">
                    <mxCell style="html=1;jettySize=18;whiteSpace=wrap;fontSize=13;strokeColor=#282c33;strokeOpacity=100;dashed=1;fixDash=1;dashPattern=6 5;strokeWidth=0.8;rounded=1;arcSize=12;edgeStyle=orthogonalEdgeStyle;startArrow=none;endArrow=block;endFill=0;" parent="1" edge="1">
                        <mxGeometry width="100" height="100" relative="1" as="geometry">
                            <Array as="points"/>
                            <mxPoint x="-450" y="-1430" as="sourcePoint"/>
                            <mxPoint x="-1290" y="-1430" as="targetPoint"/>
                        </mxGeometry>
                    </mxCell>
                </UserObject>
                <mxCell id="309" value="response" style="text;html=1;resizable=0;labelBackgroundColor=none;align=center;verticalAlign=middle;fontColor=#333333;fontSize=13.3;" parent="308" vertex="1">
                    <mxGeometry relative="1" as="geometry">
                        <mxPoint y="-7" as="offset"/>
                    </mxGeometry>
                </mxCell>
                <UserObject label="" lucidchartObjectId="2ldaxLMVULSS" id="313">
                    <mxCell style="html=1;overflow=block;blockSpacing=1;whiteSpace=wrap;fontSize=13;spacing=0;strokeColor=#282c33;strokeOpacity=100;fillOpacity=100;rounded=1;absoluteArcSize=1;arcSize=9;fillColor=#f9d2de;strokeWidth=0.8;" parent="1" vertex="1">
                        <mxGeometry x="-1065" y="-1340" width="30" height="45" as="geometry"/>
                    </mxCell>
                </UserObject>
                <UserObject label="" lucidchartObjectId="2lda24RSWI~S" id="314">
                    <mxCell style="html=1;jettySize=18;whiteSpace=wrap;fontSize=13;strokeColor=#282c33;strokeOpacity=100;strokeWidth=0.8;rounded=1;arcSize=12;edgeStyle=orthogonalEdgeStyle;startArrow=block;startFill=1;endArrow=none;exitX=-0.012;exitY=0.33;exitPerimeter=0;entryX=1.012;entryY=0.663;entryPerimeter=0;" parent="1" source="316" target="313" edge="1">
                        <mxGeometry width="100" height="100" relative="1" as="geometry">
                            <Array as="points"/>
                        </mxGeometry>
                    </mxCell>
                </UserObject>
                <mxCell id="315" value="app.use('/appointments', appointments)" style="text;html=1;resizable=0;labelBackgroundColor=none;align=center;verticalAlign=middle;fontColor=#333333;fontSize=13.3;" parent="314" vertex="1">
                    <mxGeometry relative="1" as="geometry">
                        <mxPoint y="-8" as="offset"/>
                    </mxGeometry>
                </mxCell>
                <UserObject label="" lucidchartObjectId="2ldakV9p7~AF" id="316">
                    <mxCell style="html=1;overflow=block;blockSpacing=1;whiteSpace=wrap;fontSize=13;spacing=0;strokeColor=#282c33;strokeOpacity=100;fillOpacity=100;rounded=1;absoluteArcSize=1;arcSize=9;fillColor=#f9d2de;strokeWidth=0.8;" parent="1" vertex="1">
                        <mxGeometry x="-750" y="-1325" width="30" height="45" as="geometry"/>
                    </mxCell>
                </UserObject>
                <UserObject label="" lucidchartObjectId="2ldaCJFw3Uq8" id="317">
                    <mxCell style="html=1;jettySize=18;whiteSpace=wrap;fontSize=13;strokeColor=#282c33;strokeOpacity=100;strokeWidth=0.8;rounded=1;arcSize=12;edgeStyle=orthogonalEdgeStyle;startArrow=block;startFill=1;endArrow=none;exitX=-0.012;exitY=0.125;exitPerimeter=0;" parent="1" source="321" edge="1">
                        <mxGeometry width="100" height="100" relative="1" as="geometry">
                            <Array as="points"/>
                            <mxPoint x="-585" y="-1205" as="targetPoint"/>
                        </mxGeometry>
                    </mxCell>
                </UserObject>
                <mxCell id="318" value="updateAppointment" style="text;html=1;resizable=0;labelBackgroundColor=none;align=center;verticalAlign=middle;fontColor=#333333;fontSize=13.3;" parent="317" vertex="1">
                    <mxGeometry relative="1" as="geometry">
                        <mxPoint y="-8" as="offset"/>
                    </mxGeometry>
                </mxCell>
                <UserObject label="" lucidchartObjectId="2ldaqtLabZpl" id="319">
                    <mxCell style="html=1;jettySize=18;whiteSpace=wrap;fontSize=13;strokeColor=#282c33;strokeOpacity=100;dashed=1;fixDash=1;dashPattern=6 5;strokeWidth=0.8;rounded=1;arcSize=12;edgeStyle=orthogonalEdgeStyle;startArrow=none;endArrow=block;endFill=0;" parent="1" edge="1">
                        <mxGeometry width="100" height="100" relative="1" as="geometry">
                            <Array as="points"/>
                            <mxPoint x="-450" y="-1115" as="sourcePoint"/>
                            <mxPoint x="-1290" y="-1115" as="targetPoint"/>
                        </mxGeometry>
                    </mxCell>
                </UserObject>
                <mxCell id="320" value="response" style="text;html=1;resizable=0;labelBackgroundColor=none;align=center;verticalAlign=middle;fontColor=#333333;fontSize=13.3;" parent="319" vertex="1">
                    <mxGeometry relative="1" as="geometry">
                        <mxPoint y="-8" as="offset"/>
                    </mxGeometry>
                </mxCell>
                <UserObject label="" lucidchartObjectId="2ldaoHF7xlvC" id="321">
                    <mxCell style="html=1;overflow=block;blockSpacing=1;whiteSpace=wrap;fontSize=13;spacing=0;strokeColor=#282c33;strokeOpacity=100;fillOpacity=100;rounded=1;absoluteArcSize=1;arcSize=9;fillColor=#f9d2de;strokeWidth=0.8;" parent="1" vertex="1">
                        <mxGeometry x="-450" y="-1220" width="30" height="120" as="geometry"/>
                    </mxCell>
                </UserObject>
                <UserObject label="" lucidchartObjectId="2ldaXoOG~3Lh" id="322">
                    <mxCell style="html=1;jettySize=18;whiteSpace=wrap;fontSize=13;strokeColor=#282c33;strokeOpacity=100;strokeWidth=0.8;rounded=1;arcSize=12;edgeStyle=orthogonalEdgeStyle;startArrow=block;startFill=1;endArrow=none;" parent="1" edge="1">
                        <mxGeometry width="100" height="100" relative="1" as="geometry">
                            <Array as="points"/>
                            <mxPoint x="-1065" y="-1325" as="sourcePoint"/>
                            <mxPoint x="-1290" y="-1325" as="targetPoint"/>
                        </mxGeometry>
                    </mxCell>
                </UserObject>
                <mxCell id="323" value="req.patch('/appointments/:id')" style="text;html=1;resizable=0;labelBackgroundColor=none;align=center;verticalAlign=middle;fontColor=#333333;fontSize=13.3;" parent="322" vertex="1">
                    <mxGeometry relative="1" as="geometry">
                        <mxPoint y="-8" as="offset"/>
                    </mxGeometry>
                </mxCell>
                <UserObject label="" lucidchartObjectId="2lda2yev5ll6" id="324">
                    <mxCell style="html=1;overflow=block;blockSpacing=1;whiteSpace=wrap;fontSize=13;spacing=0;strokeColor=#282c33;strokeOpacity=100;fillOpacity=100;rounded=1;absoluteArcSize=1;arcSize=9;fillColor=#f9d2de;strokeWidth=0.8;" parent="1" vertex="1">
                        <mxGeometry x="30" y="-1205" width="30" height="90" as="geometry"/>
                    </mxCell>
                </UserObject>
                <UserObject label="" lucidchartObjectId="2ldaWgQtBbI_" id="325">
                    <mxCell style="html=1;jettySize=18;whiteSpace=wrap;fontSize=13;strokeColor=#282c33;strokeOpacity=100;dashed=1;fixDash=1;dashPattern=6 5;strokeWidth=0.8;rounded=1;arcSize=12;edgeStyle=orthogonalEdgeStyle;startArrow=none;endArrow=block;endFill=0;exitX=-0.012;exitY=0.738;exitPerimeter=0;entryX=1.012;entryY=0.659;entryPerimeter=0;" parent="1" source="333" target="324" edge="1">
                        <mxGeometry width="100" height="100" relative="1" as="geometry">
                            <Array as="points"/>
                        </mxGeometry>
                    </mxCell>
                </UserObject>
                <mxCell id="326" value="appointment" style="text;html=1;resizable=0;labelBackgroundColor=none;align=center;verticalAlign=middle;fontColor=#333333;fontSize=13.3;" parent="325" vertex="1">
                    <mxGeometry relative="1" as="geometry">
                        <mxPoint y="-8" as="offset"/>
                    </mxGeometry>
                </mxCell>
                <UserObject label="" lucidchartObjectId="2ldaBJtYQyVs" id="327">
                    <mxCell style="html=1;jettySize=18;whiteSpace=wrap;fontSize=13;strokeColor=#282c33;strokeOpacity=100;strokeWidth=0.8;rounded=1;arcSize=12;edgeStyle=orthogonalEdgeStyle;startArrow=block;startFill=1;endArrow=none;exitX=-0.012;exitY=0.159;exitPerimeter=0;entryX=1.012;entryY=0.244;entryPerimeter=0;" parent="1" source="324" target="321" edge="1">
                        <mxGeometry width="100" height="100" relative="1" as="geometry">
                            <Array as="points"/>
                        </mxGeometry>
                    </mxCell>
                </UserObject>
                <mxCell id="328" value="findByIdAndUpdate&#10;(req.params.id, req.body)" style="text;html=1;resizable=0;labelBackgroundColor=none;align=center;verticalAlign=middle;fontColor=#333333;fontSize=13.3;" parent="327" vertex="1">
                    <mxGeometry relative="1" as="geometry">
                        <mxPoint y="-19" as="offset"/>
                    </mxGeometry>
                </mxCell>
                <UserObject label="" lucidchartObjectId="2ldabOtYWg6x" id="329">
                    <mxCell style="html=1;jettySize=18;whiteSpace=wrap;fontSize=13;strokeColor=#282c33;strokeOpacity=100;dashed=1;fixDash=1;dashPattern=6 5;strokeWidth=0.8;rounded=1;arcSize=12;edgeStyle=orthogonalEdgeStyle;startArrow=none;endArrow=block;endFill=0;exitX=-0.012;exitY=0.824;exitPerimeter=0;entryX=1.012;entryY=0.743;entryPerimeter=0;" parent="1" source="324" target="321" edge="1">
                        <mxGeometry width="100" height="100" relative="1" as="geometry">
                            <Array as="points"/>
                        </mxGeometry>
                    </mxCell>
                </UserObject>
                <mxCell id="330" value="appointment" style="text;html=1;resizable=0;labelBackgroundColor=none;align=center;verticalAlign=middle;fontColor=#333333;fontSize=13.3;" parent="329" vertex="1">
                    <mxGeometry relative="1" as="geometry">
                        <mxPoint y="-8" as="offset"/>
                    </mxGeometry>
                </mxCell>
                <UserObject label="" lucidchartObjectId="2ldaVF2SKPsm" id="331">
                    <mxCell style="html=1;jettySize=18;whiteSpace=wrap;fontSize=13;strokeColor=#282c33;strokeOpacity=100;strokeWidth=0.8;rounded=1;arcSize=12;edgeStyle=orthogonalEdgeStyle;startArrow=block;startFill=1;endArrow=none;exitX=-0.012;exitY=0.262;exitPerimeter=0;entryX=1.012;entryY=0.341;entryPerimeter=0;" parent="1" source="333" target="324" edge="1">
                        <mxGeometry width="100" height="100" relative="1" as="geometry">
                            <Array as="points"/>
                        </mxGeometry>
                    </mxCell>
                </UserObject>
                <mxCell id="332" value="AppointmentSchema" style="text;html=1;resizable=0;labelBackgroundColor=none;align=center;verticalAlign=middle;fontColor=#333333;fontSize=13.3;" parent="331" vertex="1">
                    <mxGeometry relative="1" as="geometry">
                        <mxPoint y="-8" as="offset"/>
                    </mxGeometry>
                </mxCell>
                <UserObject label="" lucidchartObjectId="2ldaZ783dFYF" id="333">
                    <mxCell style="html=1;overflow=block;blockSpacing=1;whiteSpace=wrap;fontSize=13;spacing=0;strokeColor=#282c33;strokeOpacity=100;fillOpacity=100;rounded=1;absoluteArcSize=1;arcSize=9;fillColor=#f9d2de;strokeWidth=0.8;" parent="1" vertex="1">
                        <mxGeometry x="210" y="-1190" width="30" height="60" as="geometry"/>
                    </mxCell>
                </UserObject>
                <UserObject label="" lucidchartObjectId="2lda2givNTvX" id="334">
                    <mxCell style="html=1;overflow=block;blockSpacing=1;whiteSpace=wrap;fontSize=13;spacing=0;strokeColor=#282c33;strokeOpacity=100;fillOpacity=100;rounded=1;absoluteArcSize=1;arcSize=9;fillColor=#f9d2de;strokeWidth=0.8;" parent="1" vertex="1">
                        <mxGeometry x="-615" y="-1310" width="30" height="120" as="geometry"/>
                    </mxCell>
                </UserObject>
                <UserObject label="" lucidchartObjectId="2ldaiyLaZAHU" id="335">
                    <mxCell style="html=1;jettySize=18;whiteSpace=wrap;fontSize=13;strokeColor=#282c33;strokeOpacity=100;strokeWidth=0.8;rounded=1;arcSize=12;edgeStyle=orthogonalEdgeStyle;startArrow=none;endArrow=block;endFill=1;exitX=1.012;exitY=0.672;exitPerimeter=0;entryX=-0.012;entryY=0.127;entryPerimeter=0;" parent="1" source="316" target="334" edge="1">
                        <mxGeometry width="100" height="100" relative="1" as="geometry">
                            <Array as="points"/>
                        </mxGeometry>
                    </mxCell>
                </UserObject>
                <mxCell id="336" value="protect" style="text;html=1;resizable=0;labelBackgroundColor=none;align=center;verticalAlign=middle;fontColor=#333333;fontSize=13.3;" parent="335" vertex="1">
                    <mxGeometry relative="1" as="geometry">
                        <mxPoint y="-9" as="offset"/>
                    </mxGeometry>
                </mxCell>
                <UserObject label="" lucidchartObjectId="2lda6~jl.j~u" id="337">
                    <mxCell style="html=1;jettySize=18;whiteSpace=wrap;fontSize=13;strokeColor=#282c33;strokeOpacity=100;strokeWidth=0.8;rounded=1;arcSize=12;edgeStyle=orthogonalEdgeStyle;startArrow=none;endArrow=block;endFill=1;exitX=1.012;exitY=0.25;exitPerimeter=0;" parent="1" source="334" target="334" edge="1">
                        <mxGeometry width="100" height="100" relative="1" as="geometry">
                            <Array as="points">
                                <mxPoint x="-570" y="-1280"/>
                                <mxPoint x="-570" y="-1249"/>
                            </Array>
                        </mxGeometry>
                    </mxCell>
                </UserObject>
                <mxCell id="338" value="authorize&#10;(&quot;admin&quot;, &#10; &quot;user&quot;)" style="text;html=1;resizable=0;labelBackgroundColor=none;align=center;verticalAlign=middle;fontColor=#333333;fontSize=13.3;" parent="337" vertex="1">
                    <mxGeometry relative="1" as="geometry">
                        <mxPoint x="30" y="-8" as="offset"/>
                    </mxGeometry>
                </mxCell>
                <UserObject label="" lucidchartObjectId="podaXmoi-0sW" id="339">
                    <mxCell style="html=1;overflow=block;blockSpacing=1;whiteSpace=wrap;fontSize=13;spacing=0;strokeColor=#282c33;strokeOpacity=100;fillOpacity=100;rounded=1;absoluteArcSize=1;arcSize=9;fillColor=#d1bcd2;strokeWidth=0.8;" parent="1" vertex="1">
                        <mxGeometry x="-1065" y="-1025" width="30" height="45" as="geometry"/>
                    </mxCell>
                </UserObject>
                <UserObject label="" lucidchartObjectId="podaPIHkFb4K" id="340">
                    <mxCell style="html=1;jettySize=18;whiteSpace=wrap;fontSize=13;strokeColor=#282c33;strokeOpacity=100;strokeWidth=0.8;rounded=1;arcSize=12;edgeStyle=orthogonalEdgeStyle;startArrow=block;startFill=1;endArrow=none;exitX=-0.012;exitY=0.33;exitPerimeter=0;entryX=1.012;entryY=0.663;entryPerimeter=0;" parent="1" source="342" target="339" edge="1">
                        <mxGeometry width="100" height="100" relative="1" as="geometry">
                            <Array as="points"/>
                        </mxGeometry>
                    </mxCell>
                </UserObject>
                <mxCell id="341" value="app.use('/appointments', appointments)" style="text;html=1;resizable=0;labelBackgroundColor=none;align=center;verticalAlign=middle;fontColor=#333333;fontSize=13.3;" parent="340" vertex="1">
                    <mxGeometry relative="1" as="geometry">
                        <mxPoint y="-9" as="offset"/>
                    </mxGeometry>
                </mxCell>
                <UserObject label="" lucidchartObjectId="podaTu-qtOcN" id="342">
                    <mxCell style="html=1;overflow=block;blockSpacing=1;whiteSpace=wrap;fontSize=13;spacing=0;strokeColor=#282c33;strokeOpacity=100;fillOpacity=100;rounded=1;absoluteArcSize=1;arcSize=9;fillColor=#d1bcd2;strokeWidth=0.8;" parent="1" vertex="1">
                        <mxGeometry x="-750" y="-1010" width="30" height="45" as="geometry"/>
                    </mxCell>
                </UserObject>
                <UserObject label="" lucidchartObjectId="podaLzS4OMfP" id="343">
                    <mxCell style="html=1;jettySize=18;whiteSpace=wrap;fontSize=13;strokeColor=#282c33;strokeOpacity=100;strokeWidth=0.8;rounded=1;arcSize=12;edgeStyle=orthogonalEdgeStyle;startArrow=block;startFill=1;endArrow=none;exitX=-0.012;exitY=0.125;exitPerimeter=0;" parent="1" source="347" edge="1">
                        <mxGeometry width="100" height="100" relative="1" as="geometry">
                            <Array as="points"/>
                            <mxPoint x="-585" y="-890" as="targetPoint"/>
                        </mxGeometry>
                    </mxCell>
                </UserObject>
                <mxCell id="344" value="deleteAppointment" style="text;html=1;resizable=0;labelBackgroundColor=none;align=center;verticalAlign=middle;fontColor=#333333;fontSize=13.3;" parent="343" vertex="1">
                    <mxGeometry relative="1" as="geometry">
                        <mxPoint y="-9" as="offset"/>
                    </mxGeometry>
                </mxCell>
                <UserObject label="" lucidchartObjectId="poda6uLhVy2T" id="345">
                    <mxCell style="html=1;jettySize=18;whiteSpace=wrap;fontSize=13;strokeColor=#282c33;strokeOpacity=100;dashed=1;fixDash=1;dashPattern=6 5;strokeWidth=0.8;rounded=1;arcSize=12;edgeStyle=orthogonalEdgeStyle;startArrow=none;endArrow=block;endFill=0;" parent="1" edge="1">
                        <mxGeometry width="100" height="100" relative="1" as="geometry">
                            <Array as="points"/>
                            <mxPoint x="-450" y="-800" as="sourcePoint"/>
                            <mxPoint x="-1290" y="-800" as="targetPoint"/>
                        </mxGeometry>
                    </mxCell>
                </UserObject>
                <mxCell id="346" value="response" style="text;html=1;resizable=0;labelBackgroundColor=none;align=center;verticalAlign=middle;fontColor=#333333;fontSize=13.3;" parent="345" vertex="1">
                    <mxGeometry relative="1" as="geometry">
                        <mxPoint y="-9" as="offset"/>
                    </mxGeometry>
                </mxCell>
                <UserObject label="" lucidchartObjectId="poda2C5c8bqy" id="347">
                    <mxCell style="html=1;overflow=block;blockSpacing=1;whiteSpace=wrap;fontSize=13;spacing=0;strokeColor=#282c33;strokeOpacity=100;fillOpacity=100;rounded=1;absoluteArcSize=1;arcSize=9;fillColor=#d1bcd2;strokeWidth=0.8;" parent="1" vertex="1">
                        <mxGeometry x="-450" y="-905" width="30" height="120" as="geometry"/>
                    </mxCell>
                </UserObject>
                <UserObject label="" lucidchartObjectId="podaeWnjPbjg" id="348">
                    <mxCell style="html=1;jettySize=18;whiteSpace=wrap;fontSize=13;strokeColor=#282c33;strokeOpacity=100;strokeWidth=0.8;rounded=1;arcSize=12;edgeStyle=orthogonalEdgeStyle;startArrow=block;startFill=1;endArrow=none;" parent="1" edge="1">
                        <mxGeometry width="100" height="100" relative="1" as="geometry">
                            <Array as="points"/>
                            <mxPoint x="-1065" y="-1010" as="sourcePoint"/>
                            <mxPoint x="-1290" y="-1010" as="targetPoint"/>
                        </mxGeometry>
                    </mxCell>
                </UserObject>
                <mxCell id="349" value="req.delete('/appointments/:id')" style="text;html=1;resizable=0;labelBackgroundColor=none;align=center;verticalAlign=middle;fontColor=#333333;fontSize=13.3;" parent="348" vertex="1">
                    <mxGeometry relative="1" as="geometry">
                        <mxPoint y="-9" as="offset"/>
                    </mxGeometry>
                </mxCell>
                <UserObject label="" lucidchartObjectId="podajDDzS.Yd" id="350">
                    <mxCell style="html=1;overflow=block;blockSpacing=1;whiteSpace=wrap;fontSize=13;spacing=0;strokeColor=#282c33;strokeOpacity=100;fillOpacity=100;rounded=1;absoluteArcSize=1;arcSize=9;fillColor=#d1bcd2;strokeWidth=0.8;" parent="1" vertex="1">
                        <mxGeometry x="30" y="-890" width="30" height="90" as="geometry"/>
                    </mxCell>
                </UserObject>
                <UserObject label="" lucidchartObjectId="podaIchj1MdU" id="351">
                    <mxCell style="html=1;jettySize=18;whiteSpace=wrap;fontSize=13;strokeColor=#282c33;strokeOpacity=100;dashed=1;fixDash=1;dashPattern=6 5;strokeWidth=0.8;rounded=1;arcSize=12;edgeStyle=orthogonalEdgeStyle;startArrow=none;endArrow=block;endFill=0;exitX=-0.012;exitY=0.738;exitPerimeter=0;entryX=1.012;entryY=0.659;entryPerimeter=0;" parent="1" source="359" target="350" edge="1">
                        <mxGeometry width="100" height="100" relative="1" as="geometry">
                            <Array as="points"/>
                        </mxGeometry>
                    </mxCell>
                </UserObject>
                <mxCell id="352" value="{ }" style="text;html=1;resizable=0;labelBackgroundColor=none;align=center;verticalAlign=middle;fontColor=#333333;fontSize=13.3;" parent="351" vertex="1">
                    <mxGeometry relative="1" as="geometry">
                        <mxPoint y="-9" as="offset"/>
                    </mxGeometry>
                </mxCell>
                <UserObject label="" lucidchartObjectId="podaEDC94Mlq" id="353">
                    <mxCell style="html=1;jettySize=18;whiteSpace=wrap;fontSize=13;strokeColor=#282c33;strokeOpacity=100;strokeWidth=0.8;rounded=1;arcSize=12;edgeStyle=orthogonalEdgeStyle;startArrow=block;startFill=1;endArrow=none;exitX=-0.012;exitY=0.159;exitPerimeter=0;entryX=1.012;entryY=0.244;entryPerimeter=0;" parent="1" source="350" target="347" edge="1">
                        <mxGeometry width="100" height="100" relative="1" as="geometry">
                            <Array as="points"/>
                        </mxGeometry>
                    </mxCell>
                </UserObject>
                <mxCell id="354" value="findByIdAndDelete&#10;(req.params.id)" style="text;html=1;resizable=0;labelBackgroundColor=none;align=center;verticalAlign=middle;fontColor=#333333;fontSize=13.3;" parent="353" vertex="1">
                    <mxGeometry relative="1" as="geometry">
                        <mxPoint y="-16" as="offset"/>
                    </mxGeometry>
                </mxCell>
                <UserObject label="" lucidchartObjectId="poda1-8MUzlA" id="355">
                    <mxCell style="html=1;jettySize=18;whiteSpace=wrap;fontSize=13;strokeColor=#282c33;strokeOpacity=100;dashed=1;fixDash=1;dashPattern=6 5;strokeWidth=0.8;rounded=1;arcSize=12;edgeStyle=orthogonalEdgeStyle;startArrow=none;endArrow=block;endFill=0;exitX=-0.012;exitY=0.824;exitPerimeter=0;entryX=1.012;entryY=0.743;entryPerimeter=0;" parent="1" source="350" target="347" edge="1">
                        <mxGeometry width="100" height="100" relative="1" as="geometry">
                            <Array as="points"/>
                        </mxGeometry>
                    </mxCell>
                </UserObject>
                <mxCell id="356" value="{ }" style="text;html=1;resizable=0;labelBackgroundColor=none;align=center;verticalAlign=middle;fontColor=#333333;fontSize=13.3;" parent="355" vertex="1">
                    <mxGeometry relative="1" as="geometry">
                        <mxPoint y="-9" as="offset"/>
                    </mxGeometry>
                </mxCell>
                <UserObject label="" lucidchartObjectId="podaR3~2LqF1" id="357">
                    <mxCell style="html=1;jettySize=18;whiteSpace=wrap;fontSize=13;strokeColor=#282c33;strokeOpacity=100;strokeWidth=0.8;rounded=1;arcSize=12;edgeStyle=orthogonalEdgeStyle;startArrow=block;startFill=1;endArrow=none;exitX=-0.012;exitY=0.262;exitPerimeter=0;entryX=1.012;entryY=0.341;entryPerimeter=0;" parent="1" source="359" target="350" edge="1">
                        <mxGeometry width="100" height="100" relative="1" as="geometry">
                            <Array as="points"/>
                        </mxGeometry>
                    </mxCell>
                </UserObject>
                <mxCell id="358" value="AppointmentSchema" style="text;html=1;resizable=0;labelBackgroundColor=none;align=center;verticalAlign=middle;fontColor=#333333;fontSize=13.3;" parent="357" vertex="1">
                    <mxGeometry relative="1" as="geometry">
                        <mxPoint y="-9" as="offset"/>
                    </mxGeometry>
                </mxCell>
                <UserObject label="" lucidchartObjectId="podagbY25aYo" id="359">
                    <mxCell style="html=1;overflow=block;blockSpacing=1;whiteSpace=wrap;fontSize=13;spacing=0;strokeColor=#282c33;strokeOpacity=100;fillOpacity=100;rounded=1;absoluteArcSize=1;arcSize=9;fillColor=#d1bcd2;strokeWidth=0.8;" parent="1" vertex="1">
                        <mxGeometry x="210" y="-875" width="30" height="60" as="geometry"/>
                    </mxCell>
                </UserObject>
                <UserObject label="" lucidchartObjectId="podawhByvDCM" id="360">
                    <mxCell style="html=1;overflow=block;blockSpacing=1;whiteSpace=wrap;fontSize=13;spacing=0;strokeColor=#282c33;strokeOpacity=100;fillOpacity=100;rounded=1;absoluteArcSize=1;arcSize=9;fillColor=#d1bcd2;strokeWidth=0.8;" parent="1" vertex="1">
                        <mxGeometry x="-615" y="-995" width="30" height="120" as="geometry"/>
                    </mxCell>
                </UserObject>
                <UserObject label="" lucidchartObjectId="podaeDlrnxmL" id="361">
                    <mxCell style="html=1;jettySize=18;whiteSpace=wrap;fontSize=13;strokeColor=#282c33;strokeOpacity=100;strokeWidth=0.8;rounded=1;arcSize=12;edgeStyle=orthogonalEdgeStyle;startArrow=none;endArrow=block;endFill=1;exitX=1.012;exitY=0.672;exitPerimeter=0;entryX=-0.012;entryY=0.127;entryPerimeter=0;" parent="1" source="342" target="360" edge="1">
                        <mxGeometry width="100" height="100" relative="1" as="geometry">
                            <Array as="points"/>
                        </mxGeometry>
                    </mxCell>
                </UserObject>
                <mxCell id="362" value="protect" style="text;html=1;resizable=0;labelBackgroundColor=none;align=center;verticalAlign=middle;fontColor=#333333;fontSize=13.3;" parent="361" vertex="1">
                    <mxGeometry relative="1" as="geometry">
                        <mxPoint y="-9" as="offset"/>
                    </mxGeometry>
                </mxCell>
                <UserObject label="" lucidchartObjectId="podafoKY8bMd" id="363">
                    <mxCell style="html=1;jettySize=18;whiteSpace=wrap;fontSize=13;strokeColor=#282c33;strokeOpacity=100;strokeWidth=0.8;rounded=1;arcSize=12;edgeStyle=orthogonalEdgeStyle;startArrow=none;endArrow=block;endFill=1;exitX=1.012;exitY=0.25;exitPerimeter=0;" parent="1" source="360" target="360" edge="1">
                        <mxGeometry width="100" height="100" relative="1" as="geometry">
                            <Array as="points">
                                <mxPoint x="-570" y="-965"/>
                                <mxPoint x="-570" y="-934"/>
                            </Array>
                        </mxGeometry>
                    </mxCell>
                </UserObject>
                <mxCell id="364" value="authorize&#10;(&quot;admin&quot;, &#10; &quot;user&quot;)" style="text;html=1;resizable=0;labelBackgroundColor=none;align=center;verticalAlign=middle;fontColor=#333333;fontSize=13.3;" parent="363" vertex="1">
                    <mxGeometry relative="1" as="geometry">
                        <mxPoint x="31" y="-9" as="offset"/>
                    </mxGeometry>
                </mxCell>
                <UserObject label="" lucidchartObjectId="ytdat1O~gG4i" id="213">
                    <mxCell style="html=1;jettySize=18;whiteSpace=wrap;fontSize=13;strokeColor=#3a414a;strokeOpacity=100;dashed=1;fixDash=1;strokeWidth=0.8;rounded=0;startArrow=none;endArrow=none;exitX=0.5;exitY=1.006;exitPerimeter=0;entryX=0.5;entryY=0.359;entryPerimeter=0;" parent="1" source="222" target="212" edge="1">
                        <mxGeometry width="100" height="100" relative="1" as="geometry">
                            <Array as="points"/>
                        </mxGeometry>
                    </mxCell>
                </UserObject>
                <UserObject label="" lucidchartObjectId="Wxdao.WeBcuU" id="210">
                    <mxCell style="html=1;jettySize=18;whiteSpace=wrap;fontSize=13;strokeColor=#3a414a;strokeOpacity=100;dashed=1;fixDash=1;strokeWidth=0.8;rounded=0;startArrow=none;endArrow=none;exitX=0.5;exitY=1.006;exitPerimeter=0;entryX=0.5;entryY=0.359;entryPerimeter=0;" parent="1" source="223" target="209" edge="1">
                        <mxGeometry width="100" height="100" relative="1" as="geometry">
                            <Array as="points"/>
                        </mxGeometry>
                    </mxCell>
                </UserObject>
                <UserObject label="" lucidchartObjectId="cydapytOffO0" id="201">
                    <mxCell style="html=1;jettySize=18;whiteSpace=wrap;fontSize=13;strokeColor=#3a414a;strokeOpacity=100;dashed=1;fixDash=1;strokeWidth=0.8;rounded=0;startArrow=none;endArrow=none;exitX=0.5;exitY=1.006;exitPerimeter=0;entryX=0.5;entryY=0.359;entryPerimeter=0;" parent="1" source="225" target="200" edge="1">
                        <mxGeometry width="100" height="100" relative="1" as="geometry">
                            <Array as="points"/>
                        </mxGeometry>
                    </mxCell>
                </UserObject>
                <UserObject label="" lucidchartObjectId="eydaORjOSOwA" id="198">
                    <mxCell style="html=1;jettySize=18;whiteSpace=wrap;fontSize=13;strokeColor=#3a414a;strokeOpacity=100;dashed=1;fixDash=1;strokeWidth=0.8;rounded=0;startArrow=none;endArrow=none;exitX=0.5;exitY=1.006;exitPerimeter=0;entryX=0.5;entryY=0.359;entryPerimeter=0;" parent="1" source="226" target="197" edge="1">
                        <mxGeometry width="100" height="100" relative="1" as="geometry">
                            <Array as="points"/>
                        </mxGeometry>
                    </mxCell>
                </UserObject>
                <UserObject label="" lucidchartObjectId="7xdaF_0NCoJ4" id="207">
                    <mxCell style="html=1;jettySize=18;whiteSpace=wrap;fontSize=13;strokeColor=#3a414a;strokeOpacity=100;dashed=1;fixDash=1;strokeWidth=0.8;rounded=0;startArrow=none;endArrow=none;exitX=0.5;exitY=1.006;exitPerimeter=0;entryX=0.5;entryY=0.359;entryPerimeter=0;" parent="1" source="280" target="206" edge="1">
                        <mxGeometry width="100" height="100" relative="1" as="geometry">
                            <Array as="points"/>
                        </mxGeometry>
                    </mxCell>
                </UserObject>
                <mxCell id="365" value="" style="html=1;jettySize=18;whiteSpace=wrap;fontSize=13;strokeColor=#3a414a;strokeOpacity=100;dashed=1;fixDash=1;strokeWidth=0.8;rounded=0;startArrow=none;endArrow=none;exitX=0.5;exitY=1.006;exitPerimeter=0;entryX=0.481;entryY=0.686;entryDx=0;entryDy=0;entryPerimeter=0;" parent="1" source="224" target="203" edge="1">
                    <mxGeometry width="100" height="100" relative="1" as="geometry">
                        <Array as="points"/>
                        <mxPoint x="-435" y="-1879.6400000000003" as="sourcePoint"/>
                        <mxPoint x="-435" y="-234.22999999999956" as="targetPoint"/>
                    </mxGeometry>
                </mxCell>
                <UserObject label="" lucidchartObjectId="2lda6~jl.j~u" id="371">
                    <mxCell style="html=1;jettySize=18;whiteSpace=wrap;fontSize=13;strokeColor=#282c33;strokeOpacity=100;strokeWidth=0.8;rounded=1;arcSize=12;edgeStyle=orthogonalEdgeStyle;startArrow=none;endArrow=block;endFill=1;" parent="1" edge="1">
                        <mxGeometry width="100" height="100" relative="1" as="geometry">
                            <Array as="points">
                                <mxPoint x="-584" y="-1790"/>
                                <mxPoint x="-570" y="-1790"/>
                                <mxPoint x="-570" y="-1765"/>
                            </Array>
                            <mxPoint x="-585" y="-1790" as="sourcePoint"/>
                            <mxPoint x="-585" y="-1764.9677419354841" as="targetPoint"/>
                        </mxGeometry>
                    </mxCell>
                </UserObject>
                <mxCell id="372" value="authorize&#10;(&quot;admin&quot;, &#10; &quot;user&quot;)" style="text;html=1;resizable=0;labelBackgroundColor=none;align=center;verticalAlign=middle;fontColor=#333333;fontSize=13.3;" parent="371" vertex="1">
                    <mxGeometry relative="1" as="geometry">
                        <mxPoint x="30" y="-14" as="offset"/>
                    </mxGeometry>
                </mxCell>
                <UserObject label="" lucidchartObjectId="_~caupdIz5kw" id="374">
                    <mxCell style="html=1;jettySize=18;whiteSpace=wrap;fontSize=13;strokeColor=#282c33;strokeOpacity=100;strokeWidth=0.8;rounded=1;arcSize=12;edgeStyle=orthogonalEdgeStyle;startArrow=block;startFill=1;endArrow=none;exitX=-0.012;exitY=0.125;exitPerimeter=0;entryX=1.012;entryY=0.667;entryPerimeter=0;" parent="1" edge="1">
                        <mxGeometry width="100" height="100" relative="1" as="geometry">
                            <Array as="points"/>
                            <mxPoint x="-450.7199999999999" y="-1753.75" as="sourcePoint"/>
                            <mxPoint x="-585.0000000000001" y="-1753.735" as="targetPoint"/>
                        </mxGeometry>
                    </mxCell>
                </UserObject>
                <mxCell id="375" value="getAppointments" style="text;html=1;resizable=0;labelBackgroundColor=none;align=center;verticalAlign=middle;fontColor=#333333;fontSize=13.3;" parent="374" vertex="1">
                    <mxGeometry relative="1" as="geometry">
                        <mxPoint y="-7" as="offset"/>
                    </mxGeometry>
                </mxCell>
                <UserObject label="" lucidchartObjectId="_~caah3RsElw" id="376">
                    <mxCell style="html=1;jettySize=18;whiteSpace=wrap;fontSize=13;strokeColor=#282c33;strokeOpacity=100;strokeWidth=0.8;rounded=1;arcSize=12;edgeStyle=orthogonalEdgeStyle;startArrow=none;endArrow=block;endFill=1;" parent="1" edge="1">
                        <mxGeometry width="100" height="100" relative="1" as="geometry">
                            <Array as="points"/>
                            <mxPoint x="-720" y="-1794" as="sourcePoint"/>
                            <mxPoint x="-615" y="-1794" as="targetPoint"/>
                        </mxGeometry>
                    </mxCell>
                </UserObject>
                <mxCell id="377" value="protect" style="text;html=1;resizable=0;labelBackgroundColor=none;align=center;verticalAlign=middle;fontColor=#333333;fontSize=13.3;" parent="376" vertex="1">
                    <mxGeometry relative="1" as="geometry">
                        <mxPoint y="-8" as="offset"/>
                    </mxGeometry>
                </mxCell>
                <UserObject label="" lucidchartObjectId="W9cal8CSpcvT" id="378">
                    <mxCell style="html=1;overflow=block;blockSpacing=1;whiteSpace=wrap;fontSize=13;spacing=0;strokeColor=#282c33;strokeOpacity=100;fillOpacity=100;rounded=1;absoluteArcSize=1;arcSize=9;fillColor=#ffdba9;strokeWidth=0.8;" parent="1" vertex="1">
                        <mxGeometry x="-615" y="-1554" width="30" height="60" as="geometry"/>
                    </mxCell>
                </UserObject>
                <UserObject label="" lucidchartObjectId="2lda6~jl.j~u" id="379">
                    <mxCell style="html=1;jettySize=18;whiteSpace=wrap;fontSize=13;strokeColor=#282c33;strokeOpacity=100;strokeWidth=0.8;rounded=1;arcSize=12;edgeStyle=orthogonalEdgeStyle;startArrow=none;endArrow=block;endFill=1;" parent="1" edge="1">
                        <mxGeometry width="100" height="100" relative="1" as="geometry">
                            <Array as="points">
                                <mxPoint x="-584" y="-1544"/>
                                <mxPoint x="-570" y="-1544"/>
                                <mxPoint x="-570" y="-1519"/>
                            </Array>
                            <mxPoint x="-585" y="-1544" as="sourcePoint"/>
                            <mxPoint x="-585" y="-1518.9677419354841" as="targetPoint"/>
                        </mxGeometry>
                    </mxCell>
                </UserObject>
                <mxCell id="380" value="authorize&#10;(&quot;admin&quot;, &#10; &quot;user&quot;)" style="text;html=1;resizable=0;labelBackgroundColor=none;align=center;verticalAlign=middle;fontColor=#333333;fontSize=13.3;" parent="379" vertex="1">
                    <mxGeometry relative="1" as="geometry">
                        <mxPoint x="30" y="-14" as="offset"/>
                    </mxGeometry>
                </mxCell>
                <UserObject label="" lucidchartObjectId="_~caupdIz5kw" id="381">
                    <mxCell style="html=1;jettySize=18;whiteSpace=wrap;fontSize=13;strokeColor=#282c33;strokeOpacity=100;strokeWidth=0.8;rounded=1;arcSize=12;edgeStyle=orthogonalEdgeStyle;startArrow=block;startFill=1;endArrow=none;exitX=-0.012;exitY=0.125;exitPerimeter=0;entryX=1.012;entryY=0.667;entryPerimeter=0;" parent="1" edge="1">
                        <mxGeometry width="100" height="100" relative="1" as="geometry">
                            <Array as="points"/>
                            <mxPoint x="-450.7199999999998" y="-1507.75" as="sourcePoint"/>
                            <mxPoint x="-585" y="-1507.735" as="targetPoint"/>
                        </mxGeometry>
                    </mxCell>
                </UserObject>
                <mxCell id="382" value="getAppointment" style="text;html=1;resizable=0;labelBackgroundColor=none;align=center;verticalAlign=middle;fontColor=#333333;fontSize=13.3;" parent="381" vertex="1">
                    <mxGeometry relative="1" as="geometry">
                        <mxPoint y="-7" as="offset"/>
                    </mxGeometry>
                </mxCell>
                <UserObject label="" lucidchartObjectId="_~caah3RsElw" id="383">
                    <mxCell style="html=1;jettySize=18;whiteSpace=wrap;fontSize=13;strokeColor=#282c33;strokeOpacity=100;strokeWidth=0.8;rounded=1;arcSize=12;edgeStyle=orthogonalEdgeStyle;startArrow=none;endArrow=block;endFill=1;" parent="1" edge="1">
                        <mxGeometry width="100" height="100" relative="1" as="geometry">
                            <Array as="points"/>
                            <mxPoint x="-720" y="-1548" as="sourcePoint"/>
                            <mxPoint x="-615" y="-1548" as="targetPoint"/>
                        </mxGeometry>
                    </mxCell>
                </UserObject>
                <mxCell id="384" value="protect" style="text;html=1;resizable=0;labelBackgroundColor=none;align=center;verticalAlign=middle;fontColor=#333333;fontSize=13.3;" parent="383" vertex="1">
                    <mxGeometry relative="1" as="geometry">
                        <mxPoint y="-8" as="offset"/>
                    </mxGeometry>
                </mxCell>
                <UserObject label="" lucidchartObjectId=".hcapJE0vVqo" id="385">
                    <mxCell style="html=1;jettySize=18;whiteSpace=wrap;fontSize=13;strokeColor=#282c33;strokeOpacity=100;strokeWidth=0.8;rounded=1;arcSize=12;edgeStyle=orthogonalEdgeStyle;startArrow=block;startFill=1;endArrow=none;exitX=0.042;exitY=0.161;exitPerimeter=0;entryX=1.02;entryY=0.569;entryPerimeter=0;exitDx=0;exitDy=0;entryDx=0;entryDy=0;" edge="1" parent="1">
                        <mxGeometry width="100" height="100" relative="1" as="geometry">
                            <Array as="points"/>
                            <mxPoint x="31.259999999999764" y="-358.5100000000002" as="sourcePoint"/>
                            <mxPoint x="-419.4000000000001" y="-358.5100000000002" as="targetPoint"/>
                        </mxGeometry>
                    </mxCell>
                </UserObject>
                <mxCell id="386" value="create(req.body)" style="text;html=1;resizable=0;labelBackgroundColor=none;align=center;verticalAlign=middle;fontColor=#333333;fontSize=13.3;" vertex="1" parent="385">
                    <mxGeometry relative="1" as="geometry">
                        <mxPoint x="-2" y="-10" as="offset"/>
                    </mxGeometry>
                </mxCell>
            </root>
        </mxGraphModel>
    </diagram>
</mxfile>